<svg width="214" height="89" fill="none" xmlns="http://www.w3.org/2000/svg"><path d="M172.93 27.61h-8c0 8.08 4.82 15.56 11.5 20.88H24.21v8h152c-6.56 5.25-11.26 12.65-11.26 20.88h8c0-11.05 13.67-20.88 24.44-20.88v-8c-11.39 0-24.46-11.12-24.46-20.88z" fill="#59C2FC"/><path d="M64.14 28.43C64.14 22 59.73 18 52.62 18H40.68v32.83h6.57v-12h4.88l5.82 12h7.41l-6.68-13.34a9.8 9.8 0 005.46-9.06zm-6.63.08c0 3.89-3 4.71-5.53 4.71h-4.73v-9.43h4.89c3.46 0 5.37 1.68 5.37 4.72zm26.27-5.06c3.28 0 5.48 2.26 5.59 5.76v1H96v-1c-.1-7.27-4.77-11.79-12.19-11.79-8.15 0-13 5.31-13 14.2v5.7c0 8.89 4.86 14.2 13 14.2C91.11 51.47 96 46.9 96 40.11v-1h-6.6v1c-.07 3.32-2.15 5.3-5.57 5.3-4.22 0-6.27-2.66-6.27-8.12v-5.7c-.03-5.49 2.01-8.14 6.22-8.14zm38.29 9.89a7.705 7.705 0 003.66-6.7c0-5.32-4-8.63-10.51-8.63h-12.28v32.82h12.44c7.36 0 11.93-3.7 11.93-9.65a8.252 8.252 0 00-5.24-7.84zm-8.48-2.2h-4.13v-7.5h4.64c3.33 0 5 1.28 5 3.79.02 3.07-2.99 3.71-5.51 3.71zm7 9.7c0 1.85-.65 4.31-6.32 4.31h-4.77v-8.52h4.66c6.39 0 6.39 3.16 6.39 4.21h.04zm30.82-16.96v-5.87h-19.55v5.87h6.48v21.08h-6.48v5.87h19.55v-5.87h-6.48V23.88h6.48z" fill="#fff"/><path d="M43.37 63.41h6.78v1.43h-8.39V56h1.61v7.41zm19.54 1.43l-1.09-1.9h-6.41l-1.1 1.9h-1.83L57.59 56h2l5.12 8.82-1.8.02zm-6.71-3.29H61l-2.41-4.2-2.39 4.2zM76.22 56h1.6v8.82h-2.29l-7.09-7.29v7.29h-1.6V56h2.29l7.09 7.29V56zm15.06 4.44a4.07 4.07 0 01-4.34 4.4h-6.31V56h6.31a4.08 4.08 0 014.34 4.44zm-5.15 3c2.27 0 3.42-.55 3.42-3s-1.15-3-3.42-3h-3.9v6h3.9zm9.2-7.44v8.82h-1.6V56h1.6zm12.19 0h1.6v8.82h-2.29l-7.09-7.29v7.29h-1.61V56h2.3l7.09 7.29V56zm9.7-.24c3.33 0 5.1 1.54 5.35 3.41h-1.73c-.25-1.21-1.47-2-3.62-2-3.45 0-3.93 2.16-3.93 3.25 0 1.09.59 3.25 4.09 3.25a7.849 7.849 0 003.56-.69v-1.4h-3.83v-1.33h5.46v3.45a9.928 9.928 0 01-5.21 1.4c-3.6 0-5.8-1.81-5.8-4.66s2.09-4.68 5.66-4.68zM52.07 77.84L51 75.94h-6.43l-1.1 1.9h-1.83L46.75 69h2l5.12 8.82-1.8.02zm-6.71-3.29h4.82l-2.41-4.2-2.41 4.2zM57 75c0 1.09 1 1.73 4.23 1.73 2.59 0 3.54-.47 3.54-1.35 0-.88-.61-1.1-3.91-1.3-3.71-.21-5.24-.81-5.24-2.75s2-2.55 5.16-2.55 5.32 1 5.34 3h-1.77c0-1.14-1.08-1.59-3.83-1.59-2.58 0-3.23.42-3.23 1.24 0 .82.65 1.08 3.58 1.28 3.43.24 5.57.4 5.57 2.6s-2.33 2.83-5.25 2.83c-3.6 0-5.85-.76-6-3.12L57 75zm13.25 0c0 1.09 1 1.73 4.23 1.73 2.59 0 3.54-.47 3.54-1.35 0-.88-.61-1.1-3.91-1.3-3.71-.21-5.24-.81-5.24-2.75s2-2.55 5.16-2.55 5.33 1 5.34 3h-1.72c0-1.14-1.08-1.59-3.83-1.59-2.58 0-3.23.42-3.23 1.24 0 .82.65 1.08 3.58 1.28 3.43.24 5.58.4 5.58 2.6s-2.34 2.79-5.25 2.79c-3.61 0-5.86-.76-6-3.12l1.75.02zm13.55-6v8.82h-1.6V69h1.6zm4.07 6c0 1.09 1 1.73 4.24 1.73 2.58 0 3.54-.47 3.54-1.35 0-.88-.62-1.1-3.92-1.3-3.71-.21-5.24-.81-5.24-2.75s2-2.55 5.16-2.55 5.33 1 5.34 3h-1.72c0-1.14-1.08-1.59-3.83-1.59-2.57 0-3.23.42-3.23 1.24 0 .82.66 1.08 3.58 1.28 3.43.24 5.58.4 5.58 2.6S95 78.1 92.12 78.1c-3.61 0-5.85-.76-6-3.12l1.75.02zm21.79-4.55h-4.59v7.39h-1.6v-7.39h-4.61V69h10.8v1.45zm9.42 7.39l-1.08-1.9h-6.42l-1.09 1.9h-1.83l5.1-8.84h2l5.11 8.82-1.79.02zm-6.71-3.29h4.82l-2.41-4.2-2.41 4.2zM132.38 69H134v8.82h-2.3l-7.08-7.29v7.29H123V69h2.3l7.08 7.29V69zm14.75 1.45h-4.6v7.39h-1.59v-7.39h-4.61V69h10.8v1.45z" fill="#fff" stroke="#000" stroke-width=".1" stroke-miterlimit="10"/></svg>