<svg width="214" height="89" fill="none" xmlns="http://www.w3.org/2000/svg"><path d="M172.93 27.61h-8c0 8.08 4.82 15.56 11.5 20.88H24.21v8h152c-6.56 5.25-11.26 12.65-11.26 20.88h8c0-11.05 13.67-20.88 24.44-20.88v-8c-11.39 0-24.46-11.12-24.46-20.88z" fill="#F9285A"/><path d="M64.14 28.43C64.14 22 59.73 18 52.62 18H40.68v32.83h6.57v-12h4.88l5.82 12h7.41l-6.68-13.34a9.8 9.8 0 005.46-9.06zm-6.63.08c0 3.89-3 4.71-5.53 4.71h-4.73v-9.43h4.89c3.46 0 5.37 1.68 5.37 4.72zm26.27-5.06c3.28 0 5.48 2.26 5.59 5.76v1H96v-1c-.1-7.27-4.77-11.79-12.19-11.79-8.15 0-13 5.31-13 14.2v5.7c0 8.89 4.86 14.2 13 14.2C91.11 51.47 96 46.9 96 40.11v-1h-6.6v1c-.07 3.32-2.15 5.3-5.57 5.3-4.22 0-6.27-2.66-6.27-8.12v-5.7c-.03-5.49 2.01-8.14 6.22-8.14zm38.29 9.89a7.715 7.715 0 003.66-6.7c0-5.32-4-8.63-10.51-8.63h-12.28v32.82h12.44c7.36 0 11.93-3.7 11.93-9.65a8.251 8.251 0 00-5.24-7.84zm-8.48-2.2h-4.13v-7.5h4.64c3.33 0 5 1.28 5 3.79.02 3.07-2.99 3.71-5.51 3.71zm7 9.7c0 1.85-.65 4.31-6.32 4.31h-4.77v-8.52h4.66c6.39 0 6.39 3.16 6.39 4.21h.04zm30.82-16.96v-5.87h-19.55v5.87h6.48v21.08h-6.48v5.87h19.55v-5.87h-6.48V23.88h6.48z" fill="#fff"/><path d="M55.39 64.84h-1.61v-7.35l-4.47 7.35h-1.47l-4.47-7.35v7.35h-1.61V56h2.53l4.29 7 4.29-7h2.52v8.84zm4.41-1.43h6.78v1.43h-8.39V56h1.61v7.41zM70.2 62c0 1.09 1 1.73 4.23 1.73 2.59 0 3.54-.47 3.54-1.35 0-.88-.61-1.1-3.91-1.3-3.71-.21-5.24-.81-5.24-2.75s2-2.55 5.16-2.55 5.32 1 5.34 3H77.6c0-1.14-1.08-1.59-3.83-1.59-2.58 0-3.23.42-3.23 1.24 0 .82.65 1.08 3.58 1.28 3.43.24 5.57.4 5.57 2.6s-2.33 2.83-5.25 2.83c-3.6 0-5.85-.76-6-3.12L70.2 62z" fill="#fff" stroke="#000" stroke-width=".1" stroke-miterlimit="10"/></svg>