<svg width="54" height="54" viewBox="0 0 54 54" fill="none" xmlns="http://www.w3.org/2000/svg">
<path d="M17.7228 16.0272L17.3693 16.3807L17.7228 16.0272C17.5001 15.8045 17.375 15.5024 17.375 15.1875C17.375 14.8726 17.5001 14.5705 17.7228 14.3478C17.9455 14.1251 18.2476 14 18.5625 14H35.4375C35.7524 14 36.0545 14.1251 36.2772 14.3478C36.4999 14.5705 36.625 14.8726 36.625 15.1875C36.625 15.5024 36.4999 15.8045 36.2772 16.0272C36.0545 16.2499 35.7524 16.375 35.4375 16.375H18.5625C18.2476 16.375 17.9455 16.2499 17.7228 16.0272ZM17.7228 22.7772L17.3693 23.1307L17.7228 22.7772C17.5001 22.5545 17.375 22.2524 17.375 21.9375C17.375 21.6226 17.5001 21.3205 17.7228 21.0978C17.9455 20.8751 18.2476 20.75 18.5625 20.75H35.4375C35.7524 20.75 36.0545 20.8751 36.2772 21.0978C36.4999 21.3205 36.625 21.6226 36.625 21.9375C36.625 22.2524 36.4999 22.5545 36.2772 22.7772C36.0545 22.9999 35.7524 23.125 35.4375 23.125H18.5625C18.2476 23.125 17.9455 22.9999 17.7228 22.7772ZM17.375 35.4375C17.375 35.1226 17.5001 34.8205 17.7228 34.5978C17.9455 34.3751 18.2476 34.25 18.5625 34.25H25.3125C25.6274 34.25 25.9295 34.3751 26.1522 34.5978C26.3749 34.8205 26.5 35.1226 26.5 35.4375C26.5 35.7524 26.3749 36.0545 26.1522 36.2772C25.9295 36.4999 25.6274 36.625 25.3125 36.625H18.5625C18.2476 36.625 17.9455 36.4999 17.7228 36.2772C17.5001 36.0545 17.375 35.7524 17.375 35.4375ZM17.375 28.6875C17.375 28.3726 17.5001 28.0705 17.7228 27.8478C17.9455 27.6251 18.2476 27.5 18.5625 27.5H35.4375C35.7524 27.5 36.0545 27.6251 36.2772 27.8478C36.4999 28.0705 36.625 28.3726 36.625 28.6875C36.625 29.0024 36.4999 29.3045 36.2772 29.5272C36.0545 29.7499 35.7524 29.875 35.4375 29.875H18.5625C18.2476 29.875 17.9455 29.7499 17.7228 29.5272C17.5001 29.3045 17.375 29.0024 17.375 28.6875Z" stroke="#6B6B6B"/>
<path d="M10.125 0.5H10.625H43.875C45.5326 0.5 47.1223 1.15848 48.2944 2.33058C49.4665 3.50269 50.125 5.0924 50.125 6.75V47.25C50.125 48.9076 49.4665 50.4973 48.2944 51.6694C47.1223 52.8415 45.5326 53.5 43.875 53.5H10.125C8.4674 53.5 6.87769 52.8415 5.70558 51.6694C4.53348 50.4973 3.875 48.9076 3.875 47.25V44.375H6.25V47.25C6.25 48.2777 6.65826 49.2633 7.38496 49.99C8.11166 50.7167 9.09729 51.125 10.125 51.125H43.875C44.9027 51.125 45.8883 50.7167 46.615 49.99C47.3417 49.2633 47.75 48.2777 47.75 47.25V6.75C47.75 5.72229 47.3417 4.73666 46.615 4.00996C45.8883 3.28326 44.9027 2.875 43.875 2.875H10.125C9.09729 2.875 8.11166 3.28326 7.38496 4.00996C6.65826 4.73666 6.25 5.72229 6.25 6.75V9.625H3.875V6.75C3.875 5.0924 4.53348 3.50269 5.70558 2.33058C6.87769 1.15848 8.4674 0.5 10.125 0.5Z" stroke="#6B6B6B"/>
<path d="M3.375 17.375H3.875V16.875V15.1875C3.875 14.8726 4.00011 14.5705 4.22281 14.3478C4.44551 14.1251 4.74756 14 5.0625 14C5.37744 14 5.67949 14.1251 5.90219 14.3478L6.25574 13.9943L5.90219 14.3478C6.12489 14.5705 6.25 14.8726 6.25 15.1875V16.875V17.375H6.75H8.4375C8.75244 17.375 9.05449 17.5001 9.27719 17.7228C9.49989 17.9455 9.625 18.2476 9.625 18.5625C9.625 18.8774 9.49989 19.1795 9.27719 19.4022C9.05449 19.6249 8.75244 19.75 8.4375 19.75H1.6875C1.37256 19.75 1.07051 19.6249 0.847811 19.4022C0.625111 19.1795 0.5 18.8774 0.5 18.5625C0.5 18.2476 0.625111 17.9455 0.847811 17.7228C1.07051 17.5001 1.37256 17.375 1.6875 17.375H3.375ZM3.375 27.5H3.875V27V25.3125C3.875 24.9976 4.00011 24.6955 4.22281 24.4728C4.44551 24.2501 4.74756 24.125 5.0625 24.125C5.37744 24.125 5.67949 24.2501 5.90219 24.4728C6.12489 24.6955 6.25 24.9976 6.25 25.3125V27V27.5H6.75H8.4375C8.75245 27.5 9.05449 27.6251 9.27719 27.8478C9.49989 28.0705 9.625 28.3726 9.625 28.6875C9.625 29.0024 9.49989 29.3045 9.27719 29.5272C9.05449 29.7499 8.75245 29.875 8.4375 29.875H1.6875C1.37255 29.875 1.07051 29.7499 0.847811 29.5272C0.625111 29.3045 0.5 29.0024 0.5 28.6875C0.5 28.3726 0.625112 28.0705 0.847811 27.8478C1.07051 27.6251 1.37255 27.5 1.6875 27.5H3.375ZM3.375 37.625H3.875V37.125V35.4375C3.875 35.1226 4.00011 34.8205 4.22281 34.5978C4.44551 34.3751 4.74755 34.25 5.0625 34.25C5.37745 34.25 5.67949 34.3751 5.90219 34.5978C6.12489 34.8205 6.25 35.1226 6.25 35.4375V37.125V37.625H6.75H8.4375C8.75245 37.625 9.05449 37.7501 9.27719 37.9728C9.49989 38.1955 9.625 38.4976 9.625 38.8125C9.625 39.1274 9.49989 39.4295 9.27719 39.6522C9.05449 39.8749 8.75245 40 8.4375 40H1.6875C1.37255 40 1.07051 39.8749 0.847811 39.6522C0.625111 39.4295 0.5 39.1274 0.5 38.8125C0.5 38.4976 0.625111 38.1955 0.847812 37.9728C1.07051 37.7501 1.37255 37.625 1.6875 37.625H3.375Z" stroke="#6B6B6B"/>
</svg>
