<svg width="77" height="54" viewBox="0 0 77 54" fill="none" xmlns="http://www.w3.org/2000/svg">
<g clip-path="url(#clip0_2:159)">
<path d="M11.8934 21.3256C11.3295 22.4441 11.0961 23.7005 11.2206 24.9472C11.3452 26.1939 11.8225 27.3791 12.5965 28.3637L12.6352 28.4165C13.3115 29.3377 14.1058 30.1659 14.9977 30.8798C15.1173 30.9713 15.2333 31.0663 15.3493 31.1649L32.1752 45.9661C33.24 46.9028 34.5781 47.471 35.991 47.5864C37.4039 47.7018 38.8163 47.3581 40.0187 46.6065C47.827 41.7256 65.1803 30.542 65.8131 29.3842C66.0662 28.9268 65.6549 27.9062 66.2455 27.3397C68.1123 25.552 68.4815 24.3344 67.6272 21.8957L63.5138 10.1666C63.0558 8.83999 62.1847 7.69539 61.0285 6.90107C59.8724 6.10675 58.4922 5.70461 57.0907 5.75374C55.4559 5.8206 53.2587 5.62705 50.3301 4.90916C47.8843 4.27083 45.38 3.88291 42.8558 3.75139C42.0714 3.71835 41.2857 3.73716 40.5038 3.80769C39.2892 3.93008 38.1338 4.39364 37.171 5.14493L33.6764 7.86517C32.5991 8.70653 31.2838 9.18564 29.9182 9.23409C28.3146 9.25841 26.7232 8.95298 25.2424 8.33673C23.7134 7.74969 22.0215 7.74948 20.4923 8.33613C18.9631 8.92279 17.7048 10.0549 16.9595 11.5144L11.8934 21.3256Z" fill="white" stroke="#6B6B6B" stroke-miterlimit="10"/>
<path d="M20.7723 3.61135L14.664 0.465028C13.3829 -0.194822 11.8101 0.30975 11.1508 1.59203L0.459835 22.3878C-0.199377 23.6701 0.304714 25.2445 1.58575 25.9044L7.69404 29.0507C8.97508 29.7105 10.548 29.206 11.2072 27.9237L21.8982 7.12788C22.5574 5.8456 22.0533 4.2712 20.7723 3.61135Z" fill="white" stroke="#6B6B6B" stroke-miterlimit="10"/>
<path d="M68.4532 29.6666L75.0016 27.5885C76.3749 27.1527 77.1353 25.685 76.6999 24.3104L69.6389 2.01622C69.2035 0.641556 67.7372 -0.119545 66.3639 0.316261L59.8155 2.39428C58.4422 2.83009 57.6818 4.29778 58.1172 5.67244L65.1782 27.9666C65.6136 29.3413 67.0798 30.1024 68.4532 29.6666Z" fill="white" stroke="#6B6B6B" stroke-miterlimit="10"/>
<path d="M60.8117 42.4203C62.2485 43.6422 64.4029 43.4668 65.6236 42.0286C66.8442 40.5903 66.669 38.4339 65.2322 37.2121L51.758 25.7538C50.3212 24.532 48.1668 24.7074 46.9462 26.1456C45.7255 27.5838 45.9007 29.7402 47.3375 30.9621L60.8117 42.4203Z" fill="white" stroke="#6B6B6B" stroke-miterlimit="10"/>
<path d="M54.8233 46.2926C56.2601 47.5145 58.4145 47.3391 59.6351 45.9009C60.8558 44.4627 60.6806 42.3062 59.2438 41.0844L47.3423 30.9636C45.9055 29.7417 43.7512 29.9171 42.5305 31.3553C41.3098 32.7936 41.4851 34.95 42.9219 36.1718L54.8233 46.2926Z" fill="white" stroke="#6B6B6B" stroke-miterlimit="10"/>
<path d="M48.2269 49.6528C49.6637 50.8747 51.818 50.6993 53.0387 49.2611C54.2594 47.8229 54.0841 45.6665 52.6473 44.4446L40.7459 34.3238C39.309 33.102 37.1547 33.2774 35.934 34.7156C34.7134 36.1538 34.8886 38.3102 36.3254 39.532L48.2269 49.6528Z" fill="white" stroke="#6B6B6B" stroke-miterlimit="10"/>
<path d="M41.6081 53.0003C43.045 54.2221 45.1993 54.0467 46.42 52.6085C47.6406 51.1703 47.4654 49.0139 46.0286 47.792L34.1271 37.6712C32.6903 36.4494 30.536 36.6248 29.3153 38.063C28.0947 39.5012 28.2699 41.6576 29.7067 42.8795L41.6081 53.0003Z" fill="white" stroke="#6B6B6B" stroke-miterlimit="10"/>
<path d="M35.9113 11.2731L19.3929 29.2039L37.7379 46.1367L54.2564 28.2059L35.9113 11.2731Z" fill="white"/>
<path d="M24.475 31.4612L24.4724 31.4588C23.4161 30.4838 21.7702 30.5506 20.7962 31.6079L18.3605 34.2518C17.3865 35.3091 17.4531 36.9566 18.5094 37.9316L18.512 37.934C19.5683 38.9089 21.2142 38.8422 22.1882 37.7849L24.6239 35.1409C25.5979 34.0836 25.5312 32.4362 24.475 31.4612Z" fill="white" stroke="#6B6B6B" stroke-miterlimit="10"/>
<path d="M32.2142 33.9367L31.0657 32.7871C30.0497 31.7701 28.4025 31.7701 27.3865 32.7871L21.6066 38.5725C20.5907 39.5894 20.5907 41.2383 21.6066 42.2552L22.7552 43.4049C23.7711 44.4218 25.4184 44.4218 26.4344 43.4049L32.2142 37.6194C33.2302 36.6025 33.2302 34.9536 32.2142 33.9367Z" fill="white" stroke="#6B6B6B" stroke-miterlimit="10"/>
<path d="M36.6024 39.2072L35.4539 38.0576C34.4379 37.0406 32.7907 37.0406 31.7747 38.0576L27.5909 42.2455C26.5749 43.2624 26.5749 44.9113 27.5909 45.9282L28.7394 47.0778C29.7554 48.0948 31.4026 48.0948 32.4186 47.0779L36.6024 42.89C37.6184 41.873 37.6184 40.2242 36.6024 39.2072Z" fill="white" stroke="#6B6B6B" stroke-miterlimit="10"/>
<path d="M38.4974 45.5229L38.0723 45.0974C37.0563 44.0804 35.4091 44.0804 34.3931 45.0974L32.8568 46.6352C31.8408 47.6521 31.8408 49.301 32.8568 50.3179L33.2819 50.7434C34.2979 51.7604 35.9451 51.7604 36.9611 50.7434L38.4974 49.2056C39.5134 48.1887 39.5134 46.5398 38.4974 45.5229Z" fill="white" stroke="#6B6B6B" stroke-miterlimit="10"/>
<path d="M56.0041 29.3841L41.2383 16.3636C41.1293 16.2686 41.0239 16.1665 40.9219 16.0645C40.4403 15.5929 38.6684 14.0551 37.3359 15.5929C36.1687 16.9407 35.9297 18.7601 35.9051 19.587C35.8817 20.2314 35.7705 20.8696 35.5746 21.4838C35.0332 23.1132 33.6094 25.6293 29.9144 26.495C29.9144 26.495 27.6398 27.3853 27.8788 22.1489C28.1179 16.9126 27.8577 14.9384 27.8577 14.9384C27.8577 14.9384 27.2425 12.9607 29.373 11.5249C29.7562 11.2244 30.1158 10.895 30.4488 10.5395C31.7461 9.00524 31.7179 9.41697 33.2015 8.14307" fill="white"/>
<path d="M56.0041 29.3841L41.2383 16.3636C41.1293 16.2686 41.0239 16.1665 40.9219 16.0645C40.4403 15.5929 38.6684 14.0551 37.3359 15.5929C36.1688 16.9407 35.9297 18.7601 35.9051 19.587C35.8817 20.2314 35.7705 20.8696 35.5746 21.4838C35.0332 23.1132 33.6094 25.6293 29.9144 26.495C29.9144 26.495 27.6398 27.3853 27.8788 22.1489C28.1179 16.9126 27.8577 14.9384 27.8577 14.9384C27.8577 14.9384 27.2425 12.9607 29.373 11.5249C29.7562 11.2244 30.1158 10.895 30.4488 10.5395C31.7461 9.00524 31.7179 9.41697 33.2015 8.14307" stroke="#6B6B6B" stroke-miterlimit="10"/>
</g>
<defs>
<clipPath id="clip0_2:159">
<rect width="77" height="54" fill="white"/>
</clipPath>
</defs>
</svg>
