<svg width="50" height="50" fill="none" xmlns="http://www.w3.org/2000/svg"><path fill-rule="evenodd" clip-rule="evenodd" d="M45.161 27.04V11.226C47.893 10.832 50 8.483 50 5.646A5.652 5.652 0 0044.355 0a5.652 5.652 0 00-5.645 5.645H0v32.258h24.235C24.654 44.642 30.255 50 37.097 50 44.21 50 50 44.211 50 37.097c0-4.064-1.893-7.69-4.839-10.057zm-.806-25.427a4.037 4.037 0 014.032 4.032 4.037 4.037 0 01-4.032 4.032 4.037 4.037 0 01-4.032-4.032 4.037 4.037 0 014.032-4.032zm-5.407 5.645H1.613V36.29h22.622c.034-.547.094-1.086.194-1.613h-1.848V25h4.838v3.591c2.366-2.69 5.823-4.398 9.678-4.398 2.351 0 4.55.643 6.451 1.747V11.227a5.611 5.611 0 01-2.567-1.066l-4.933 4.932c.151.315.242.664.242 1.036a2.422 2.422 0 01-2.419 2.42 2.422 2.422 0 01-2.42-2.42c0-.373.092-.72.242-1.037l-1.625-1.625a2.38 2.38 0 01-1.036.243c-.372 0-.72-.092-1.037-.242l-4.044 4.044c.151.315.242.664.242 1.036a2.422 2.422 0 01-2.419 2.42 2.422 2.422 0 01-2.42-2.42 2.422 2.422 0 012.42-2.419c.373 0 .721.091 1.037.242l4.045-4.044a2.38 2.38 0 01-.243-1.037 2.422 2.422 0 012.42-2.419 2.422 2.422 0 012.419 2.42c0 .372-.092.72-.242 1.036l1.625 1.625a2.38 2.38 0 011.036-.242c.372 0 .72.09 1.037.242L39.84 9.02a5.641 5.641 0 01-.892-1.762zm-5.077 8.065a.807.807 0 11-.002 1.614.807.807 0 01.002-1.614zm-4.839-4.84a.807.807 0 10.002 1.615.807.807 0 00-.002-1.614zm-6.451 8.065a.807.807 0 11-1.615-.001.807.807 0 011.615.001zm8.064 18.549a6.46 6.46 0 006.452 6.451 6.46 6.46 0 006.451-6.451 6.46 6.46 0 00-6.451-6.452 6.46 6.46 0 00-6.452 6.452zm-4.838-6.233a12.806 12.806 0 00-.96 2.2h-.654v-6.451h1.613v4.25zm10.483-1.79v-3.226c-5.849.416-10.483 5.296-10.483 11.249 0 1.767.419 3.434 1.146 4.925l2.798-1.615a8.01 8.01 0 01-.719-3.31c0-4.174 3.189-7.617 7.258-8.024zm.807 19.313c-3.883 0-7.313-1.97-9.345-4.964l2.809-1.621c1.466 2.03 3.846 3.36 6.536 3.36 2.69 0 5.07-1.33 6.536-3.36l2.809 1.621c-2.032 2.994-5.463 4.964-9.345 4.964zm7.346-7.98l2.797 1.615a11.195 11.195 0 001.147-4.925c0-5.954-4.635-10.833-10.484-11.25v3.226c4.07.406 7.258 3.85 7.258 8.024a8.01 8.01 0 01-.718 3.31z" fill="#00FFA5"/><path fill-rule="evenodd" clip-rule="evenodd" d="M32 37c0-2.758 2.242-5 5-5s5 2.242 5 5-2.242 5-5 5-5-2.242-5-5zm1.667 0A3.337 3.337 0 0037 40.333 3.337 3.337 0 0040.333 37 3.337 3.337 0 0037 33.667 3.337 3.337 0 0033.667 37z" fill="#00FFA5"/><path d="M3 9h2v2H3V9zm4 0h11v2H7V9zm-4 3h2v2H3v-2zm4 0h11v2H7v-2zm-4 3h2v2H3v-2zm4 0h11v2H7v-2zm-4 3h2v2H3v-2zm4 0h11v2H7v-2z" fill="#00FFA5"/><path fill-rule="evenodd" clip-rule="evenodd" d="M8 35H3v-8h5v8zm-1.667-6.4H4.667v4.8h1.666v-4.8zM15 34h-5v-6h5v6zm-1.667-4.5h-1.666v3h1.666v-3zM21 35h-5V22h5v13zm-1.667-11.375h-1.666v9.75h1.666v-9.75z" fill="#00FFA5"/></svg>