<svg width="49" height="49" fill="none" xmlns="http://www.w3.org/2000/svg"><path fill-rule="evenodd" clip-rule="evenodd" d="M41.424 23.71h6.785a.79.79 0 01.79.79v20.548a.79.79 0 01-.79.79H19.296l-2.93 2.93a.788.788 0 01-1.118 0l-2.93-2.93H.79a.79.79 0 01-.79-.79V24.5a.79.79 0 01.79-.79h8.367L32.635.232a.79.79 0 011.117 0l15.016 15.016a.79.79 0 010 1.117l-7.344 7.345zm5.668-7.903L33.193 1.908 11.391 23.71h4.453a8.633 8.633 0 012.508-5.357c3.39-3.39 8.906-3.389 12.295 0a8.625 8.625 0 012.508 5.357h6.034l7.903-7.903zM20.728 23.71a1.582 1.582 0 01.419-1.445l1.445 1.445h-1.864zm8.243-.327c.102.102.196.212.283.327v.001h2.31a7.057 7.057 0 00-2.035-4.239c-2.774-2.772-7.286-2.773-10.06 0a7.062 7.062 0 00-2.036 4.24h1.692a3.136 3.136 0 01.903-2.564l-.558-.558 1.117-1.118.559.559a3.14 3.14 0 012.236-.926c.844 0 1.637.328 2.235.925l-1.118 1.118c-.597-.597-1.637-.597-2.235 0l2.236 2.235a3.165 3.165 0 014.47 0zm-13.165 23.71l-1.253-1.254h2.507l-1.254 1.253zM1.581 25.29v18.968h45.838V25.29H1.581z" fill="#00FFA5"/><path fill-rule="evenodd" clip-rule="evenodd" d="M22.6 36.938H21c0 1.792 1.435 3.25 3.2 3.25V41h1.6v-.813c1.765 0 3.2-1.457 3.2-3.25 0-1.792-1.435-3.25-3.2-3.25v-3.25c.882 0 1.6.73 1.6 1.625H29c0-1.792-1.435-3.25-3.2-3.25V28h-1.6v.813c-1.765 0-3.2 1.457-3.2 3.25 0 1.792 1.435 3.25 3.2 3.25v3.25c-.882 0-1.6-.73-1.6-1.626zm0-4.876c0-.896.718-1.624 1.6-1.624v3.25c-.882 0-1.6-.73-1.6-1.626zm4.8 4.876c0-.897-.718-1.626-1.6-1.626v3.25c.882 0 1.6-.728 1.6-1.624z" fill="#00FFA5"/><path fill-rule="evenodd" clip-rule="evenodd" d="M33 34.5c0 4.687-3.813 8.5-8.5 8.5-4.687 0-8.5-3.813-8.5-8.5 0-4.687 3.813-8.5 8.5-8.5 4.687 0 8.5 3.813 8.5 8.5zm-1.546 0a6.962 6.962 0 00-6.954-6.954 6.962 6.962 0 00-6.954 6.954 6.962 6.962 0 006.954 6.955 6.962 6.962 0 006.954-6.955z" fill="#00FFA5"/><path d="M46 42.2V27.8c0-.442-.344-.8-.77-.8H36v1.6h8.462v12.8H36V43h9.23c.426 0 .77-.358.77-.8zM3.77 43H13v-1.6H4.538V28.6H13V27H3.77c-.426 0-.77.358-.77.8v14.4c0 .442.344.8.77.8z" fill="#00FFA5"/><path d="M36 38h2v2h-2v-2zm3 0h2v2h-2v-2zm-3-8h2v2h-2v-2zm3 0h2v2h-2v-2zM33.22 6.888l8.884 8.89-6.109 6.111L37.105 23l6.665-6.667a.785.785 0 000-1.111L33.774 5.22a.808.808 0 00-1.11 0L26 11.888l1.11 1.111 6.11-6.111z" fill="#00FFA5"/><path d="M34.025 19.45l1.12-1.119 1.12 1.12-1.12 1.12-1.12-1.12zm2.239-2.239l1.12-1.12 1.119 1.12-1.12 1.12-1.12-1.12zm-7.837-3.358l1.12-1.12 1.119 1.12-1.12 1.12-1.12-1.12zm2.239-2.24l1.12-1.12 1.12 1.12-1.12 1.12-1.12-1.12zM8 30h2v2H8v-2zm4 0h2v2h-2v-2zm-4 8h2v2H8v-2zm4 0h2v2h-2v-2z" fill="#00FFA5"/></svg>