<svg width="50" height="50" fill="none" xmlns="http://www.w3.org/2000/svg"><path d="M5.333 3h-.666C4.298 3 4 3.448 4 4s.298 1 .667 1h.666C5.702 5 6 4.552 6 4s-.298-1-.667-1zm5 0h-.666C9.298 3 9 3.448 9 4s.299 1 .667 1h.666c.369 0 .667-.448.667-1s-.298-1-.667-1zm4 0h-.666C13.298 3 13 3.448 13 4s.298 1 .667 1h.666c.369 0 .667-.448.667-1s-.299-1-.667-1zm25.839 0H17.828C17.37 3 17 3.448 17 4s.37 1 .828 1h22.344C40.63 5 41 4.552 41 4s-.37-1-.828-1z" fill="#00FFA5"/><path fill-rule="evenodd" clip-rule="evenodd" d="M48.333 30H47.5v-4.167a9.124 9.124 0 00-2.5-6.271V4.167A4.172 4.172 0 0040.833 0H4.167A4.172 4.172 0 000 4.167V37.5a4.172 4.172 0 004.167 4.167h22.5v2.5A5.84 5.84 0 0032.5 50h11.667A5.84 5.84 0 0050 44.167v-12.5c0-.92-.746-1.667-1.667-1.667zm-2.5-4.167V30h-15v-4.167a7.5 7.5 0 0115 0zM4.167 1.667a2.5 2.5 0 00-2.5 2.5v2.5h41.666v-2.5a2.5 2.5 0 00-2.5-2.5H4.167zm22.5 30V40h-22.5a2.5 2.5 0 01-2.5-2.5V8.333h41.666v9.827a9.155 9.155 0 00-14.166 7.673V30h-.834c-.92 0-1.666.746-1.666 1.667zm19.166 1.666h2.5v-1.666h-20v1.666h2.5a.833.833 0 110 1.667h-2.5v1.667h2.5a.833.833 0 110 1.666h-2.5V40h2.5a.833.833 0 110 1.667h-2.5v1.666h2.5a.833.833 0 110 1.667h-2.416a4.174 4.174 0 004.083 3.333h11.667A4.174 4.174 0 0048.25 45h-2.417a.833.833 0 110-1.667h2.5v-1.666h-2.5a.833.833 0 110-1.667h2.5v-1.667h-2.5a.833.833 0 110-1.666h2.5V35h-2.5a.833.833 0 110-1.667z" fill="#00FFA5"/><path fill-rule="evenodd" clip-rule="evenodd" d="M37.666 43.111V41.17c-1.147-.431-1.836-1.682-1.63-2.96.206-1.279 1.247-2.212 2.464-2.21 1.217-.002 2.258.931 2.464 2.21.206 1.278-.483 2.529-1.63 2.96v1.941c0 .491-.374.889-.834.889-.46 0-.834-.398-.834-.889zm1.668-4.444c0-.491-.374-.89-.834-.89-.46 0-.834.399-.834.89 0 .49.374.889.834.889.46 0 .834-.398.834-.89z" fill="#00FFA5"/><path d="M14.167 17a.833.833 0 00-.834.833v2.5H6.667v-6.666H10A.833.833 0 1010 12H6.667C5.747 12 5 12.746 5 13.667v6.666C5 21.253 5.746 22 6.667 22h6.666c.92 0 1.667-.746 1.667-1.667v-2.5a.833.833 0 00-.833-.833z" fill="#00FFA5"/><path d="M9.32 15.756a.72.72 0 00-1.092.01.954.954 0 00-.01 1.228l1.558 1.75a.738.738 0 00.55.256h.036a.752.752 0 00.563-.313l3.894-5.25a.961.961 0 00.133-.863c-.096-.294-.324-.508-.598-.561a.735.735 0 00-.731.302l-3.35 4.515-.953-1.074zM14.167 31a.833.833 0 00-.834.833v2.5H6.667v-6.666H10A.833.833 0 0010 26H6.667C5.747 26 5 26.746 5 27.667v6.666C5 35.253 5.746 36 6.667 36h6.666c.92 0 1.667-.746 1.667-1.667v-2.5a.833.833 0 00-.833-.833z" fill="#00FFA5"/><path d="M9.32 29.756a.72.72 0 00-1.092.01.954.954 0 00-.01 1.228l1.558 1.75a.738.738 0 00.55.256h.036a.752.752 0 00.563-.313l3.894-5.25a.961.961 0 00.133-.863c-.096-.294-.324-.508-.598-.561a.735.735 0 00-.731.301l-3.35 4.516-.953-1.074zM18.8 14h6.4c.442 0 .8-.448.8-1s-.358-1-.8-1h-6.4c-.442 0-.8.448-.8 1s.358 1 .8 1zM30 17c0-.552-.358-1-.8-1H18.8c-.442 0-.8.448-.8 1s.358 1 .8 1h10.4c.442 0 .8-.448.8-1zm-4.8 10h-6.4c-.442 0-.8.448-.8 1s.358 1 .8 1h6.4c.442 0 .8-.448.8-1s-.358-1-.8-1zm-.978 4h-5.444c-.43 0-.778.448-.778 1s.348 1 .778 1h5.444c.43 0 .778-.448.778-1s-.348-1-.778-1z" fill="#00FFA5"/></svg>