<svg width="46" height="50" fill="none" xmlns="http://www.w3.org/2000/svg"><path fill-rule="evenodd" clip-rule="evenodd" d="M18.195 40.52H8.468a2.497 2.497 0 01-2.498-2.49v-2.728a2.965 2.965 0 001.484-.033v2.76c0 .557.455 1.01 1.014 1.01H18a.741.741 0 100-1.48H8.94v-3.256l.007-.008a2.962 2.962 0 00-.23-4.006 2.961 2.961 0 001.022-4.9 2.954 2.954 0 001.26-.905c.5-.614.73-1.387.649-2.174a2.943 2.943 0 00-1.084-1.995L8.94 18.999V4.48h3.286l.022.067a1.86 1.86 0 001.78 1.3h5.737a1.86 1.86 0 001.78-1.3l.022-.067h2.95v10.27c0 .41.332.74.742.74s.742-.33.742-.74V4.01A1.014 1.014 0 0024.987 3h-3.621c-.53 0-.994.339-1.155.842l-.081.257a.382.382 0 01-.366.267h-5.737a.382.382 0 01-.365-.267l-.082-.257A1.206 1.206 0 0012.426 3H8.468c-.56 0-1.014.453-1.014 1.01v13.791a2.953 2.953 0 00-1.484-.573V9.695a.741.741 0 00-1.484-.007 2.958 2.958 0 00-1.82-.396c-.79.082-1.5.465-2 1.08a2.94 2.94 0 00-.65 2.175A2.943 2.943 0 001.1 14.542l3.386 2.742v.18a2.953 2.953 0 00-1.112.847 2.94 2.94 0 00-.65 2.174c.073.7.385 1.337.886 1.82a2.962 2.962 0 00-1.019 4.903 2.95 2.95 0 00-1.26.903 2.939 2.939 0 00-.65 2.174 2.943 2.943 0 001.083 1.996l2.722 2.204v3.544A3.98 3.98 0 008.468 42h9.727a.741.741 0 100-1.48zM2.035 13.393a1.473 1.473 0 01-.542-1 1.47 1.47 0 01.325-1.088c.25-.307.606-.5 1.002-.54a1.48 1.48 0 011.092.324l.573.464v3.824l-2.45-1.984zm3.492 5.31a1.48 1.48 0 00-1.002.54 1.478 1.478 0 00.217 2.088l3.01 2.437a1.493 1.493 0 002.093-.217c.25-.307.366-.694.325-1.088a1.473 1.473 0 00-.542-1l-3.01-2.436a1.48 1.48 0 00-1.091-.324zm-2.024 5.441c.251-.308.607-.5 1.002-.54.38-.04.75.066 1.053.295l1.257 1.018.024.017.02.015 1.747 1.415c.637.516.735 1.452.217 2.087a1.493 1.493 0 01-2.094.217L3.72 26.232a1.483 1.483 0 01-.217-2.088zm-1.021 4.9c-.25.308-.366.695-.325 1.089.04.394.233.75.542.999l3.009 2.436c.309.25.696.365 1.092.324a1.483 1.483 0 00.785-2.628L5.838 29.85l-.02-.014-.024-.019-1.263-1.023a1.488 1.488 0 00-2.049.25z" fill="#00FFA5"/><path d="M5.728 7.097a.726.726 0 00.727-.725v-2.48A2.447 2.447 0 018.904 1.45h16.192a2.447 2.447 0 012.449 2.44v13.384a.726.726 0 001.455 0V3.89A3.902 3.902 0 0025.096 0H8.904A3.902 3.902 0 005 3.891v2.48c0 .401.326.726.728.726zM45.811 48.85l-5.413-5.604a.87.87 0 00-1.118-.08c-.334.25-.375.69-.091.984l5.413 5.604a.84.84 0 00.605.246.857.857 0 00.514-.166c.333-.25.374-.69.09-.985zm-18.51-2.14a.713.713 0 00-.455-.282c-2.494-.417-4.512-2.42-5.021-4.985l-.264-1.334a6.534 6.534 0 01.678-4.416l3.55-6.45a2.434 2.434 0 00-.184-2.634l-3.325-4.417a3.529 3.529 0 01.116-4.361l.178-.211a.366.366 0 01.555-.012l3.173 3.487a.7.7 0 001.014.03.762.762 0 00.03-1.05l-3.172-3.486A1.78 1.78 0 0022.822 16c-.51.01-.995.245-1.33.642l-.177.212c-1.491 1.77-1.561 4.4-.167 6.252l3.326 4.417a.91.91 0 01.068.984l-3.55 6.45a8.066 8.066 0 00-.837 5.451l.264 1.334c.608 3.066 2.965 5.483 5.912 6.1l1.382 1.867a.699.699 0 001.006.138.761.761 0 00.133-1.042l-1.55-2.095zm9.667-8.108a1.03 1.03 0 01-.243-.664v-3.735a10.22 10.22 0 00-2.764-7.009l-3.716-3.966a.718.718 0 00-1.019-.03.729.729 0 00-.03 1.025l3.715 3.967a8.766 8.766 0 012.373 6.014v3.734c0 .587.208 1.157.586 1.604l1.86 2.202a.718.718 0 001.016.083.729.729 0 00.082-1.022l-1.86-2.203z" fill="#00FFA5"/><path fill-rule="evenodd" clip-rule="evenodd" d="M14 11.514C14 9.576 15.45 8 17.233 8c1.783 0 3.234 1.576 3.234 3.514 0 .797-.246 1.533-.659 2.123l.988 1.073a.803.803 0 010 1.069.666.666 0 01-.491.221.666.666 0 01-.492-.221l-1.067-1.16a3.02 3.02 0 01-1.512.41c-1.784 0-3.234-1.577-3.234-3.515zm3.233-2.003c-1.016 0-1.843.899-1.843 2.003s.827 2.003 1.843 2.003c1.017 0 1.844-.898 1.844-2.003 0-1.104-.827-2.003-1.844-2.003z" fill="#00FFA5"/><path d="M18.587 33.42H12.72a.226.226 0 01-.22-.23v-3.38c0-.127.099-.23.22-.23h7.53c.414 0 .75-.354.75-.79 0-.437-.336-.79-.75-.79h-7.53c-.948 0-1.72.812-1.72 1.81v3.38c0 .998.772 1.81 1.72 1.81h5.867c.414 0 .75-.353.75-.79 0-.436-.336-.79-.75-.79z" fill="#00FFA5"/></svg>