<svg width="55" height="50" fill="none" xmlns="http://www.w3.org/2000/svg"><path d="M54.667 36.066l-2.748-2.738a1.122 1.122 0 00-1.592.007 1.135 1.135 0 00.006 1.6l2.748 2.737a1.12 1.12 0 001.592-.007 1.135 1.135 0 00-.006-1.6zm-4.96-5.773a1 1 0 00-1.413 0l-.002.002a.999.999 0 101.415 1.412 1 1 0 000-1.414z" fill="#00FFA5"/><path fill-rule="evenodd" clip-rule="evenodd" d="M50.812 24.997L40.356 35.428a16.766 16.766 0 01-10.842 4.878l-.693.693a7.883 7.883 0 004.498.977l.341-.028a1.08 1.08 0 01.85.312l5.913 5.898a1.073 1.073 0 01-.763 1.836c-.275 0-.551-.105-.762-.315l-5.56-5.547a10.037 10.037 0 01-6.085-1.562l-7.104 7.114a1.075 1.075 0 01-1.524.002 1.074 1.074 0 01-.003-1.52l9.659-9.672c.193-.193.452-.306.724-.316 3.71-.134 7.2-1.65 9.826-4.27l10.456-10.431a1.9 1.9 0 000-2.69 1.911 1.911 0 00-2.695 0l-1.325 1.322a1.076 1.076 0 01-1.524 0 1.074 1.074 0 010-1.521l1.324-1.321 1.448-1.445c.36-.359.559-.837.559-1.344 0-.508-.199-.986-.559-1.345a1.895 1.895 0 00-1.348-.557c-.509 0-.987.198-1.347.557L41.047 17.9a1.076 1.076 0 01-1.524 0c-.42-.42-.42-1.1 0-1.52l2.773-2.767 1.055-1.052a1.9 1.9 0 000-2.69 1.911 1.911 0 00-2.696 0l-3.827 3.82a1.076 1.076 0 01-1.525 0 1.077 1.077 0 010-1.522l3.828-3.818 1.055-1.053c.36-.359.558-.836.558-1.344 0-.508-.198-.985-.558-1.345a1.895 1.895 0 00-1.348-.557c-.509 0-.987.198-1.348.557l-7.154 7.138a4.05 4.05 0 01-3.304 6.615 4.021 4.021 0 01-1.186 3.029 4.054 4.054 0 01-3.033 1.18c.002.055.004.11.004.164a4.055 4.055 0 01-4.226 4.046 4.036 4.036 0 01-1.184 3.03 4.04 4.04 0 01-2.872 1.186 4.044 4.044 0 01-2.007-.529L1.84 41.13a1.076 1.076 0 01-1.524 0 1.073 1.073 0 010-1.52l10.586-10.561-2.15-2.145a4.05 4.05 0 011.959-6.814 4.052 4.052 0 012.991-5.699 4.05 4.05 0 013.168-5.26 4.049 4.049 0 01.983-4.137 4.04 4.04 0 012.872-1.186c.544 0 1.071.106 1.559.308a4.874 4.874 0 01-.279-1.63v-1.41c0-.594.483-1.076 1.078-1.076h8.464a7.2 7.2 0 015.248 2.28l.104.111c.588-.32 1.25-.49 1.94-.49a4.04 4.04 0 012.872 1.187 4.05 4.05 0 01.985 4.137 4.049 4.049 0 013.163 5.26 4.03 4.03 0 012.182 1.127 4.021 4.021 0 011.19 2.865c0 .6-.131 1.18-.378 1.708a4.05 4.05 0 011.959 6.812zm-36.276 3.849a1.9 1.9 0 001.348-3.246l-2.913-2.906a1.895 1.895 0 00-1.348-.557 1.9 1.9 0 00-1.348 3.246l2.913 2.905c.36.36.838.558 1.348.558zm5.567-4.767a1.911 1.911 0 01-2.696 0l-2.912-2.906-1.448-1.445a1.9 1.9 0 011.348-3.246c.509 0 .987.198 1.347.557l4.36 4.35c.361.36.56.837.56 1.345s-.199.985-.559 1.345zm1.524-4.21a1.912 1.912 0 002.696 0c.36-.36.558-.837.558-1.345s-.198-.985-.558-1.344l-2.948-2.941-2.469-2.463a1.902 1.902 0 00-1.346-.555 1.903 1.903 0 00-1.906 1.9c0 .509.198.986.558 1.345l5.415 5.403zm6.916-4.21a1.911 1.911 0 01-2.696 0l-5.415-5.403-.002-.001-1.053-1.051a1.9 1.9 0 011.347-3.245 1.9 1.9 0 011.348.556l6.47 6.455c.36.359.559.836.559 1.344 0 .508-.198.986-.558 1.345zm-2.678-8.401l2.96 2.953 6.436-6.42-.044-.046a5.036 5.036 0 00-3.67-1.595H24.16v.335c0 .732.287 1.42.807 1.936a2.723 2.723 0 001.93.796h.014l2.958-.014h.005c.593 0 1.075.478 1.078 1.07a1.077 1.077 0 01-1.073 1.08l-2.958.014h-.023c-.352 0-.697-.038-1.033-.11z" fill="#00FFA5"/></svg>