<svg width="50" height="50" fill="none" xmlns="http://www.w3.org/2000/svg"><path fill-rule="evenodd" clip-rule="evenodd" d="M41.041 6.342h5.297A3.666 3.666 0 0150 10.004v28.295a3.666 3.666 0 01-3.662 3.662H31.695l2.395 6.574h.952a.732.732 0 110 1.465H14.958a.732.732 0 110-1.465h.952l2.395-6.574H3.662A3.666 3.666 0 010 38.3V10.004a3.666 3.666 0 013.662-3.662h3.196a.732.732 0 010 1.464H3.662a2.2 2.2 0 00-2.197 2.198v24.633H2.93V10.785c0-.835.679-1.514 1.513-1.514H8.96V3.662A3.666 3.666 0 0112.621 0H37.38a3.666 3.666 0 013.662 3.662v2.68zM20 3.333A.833.833 0 1020 5a.833.833 0 000-1.667zm-.715 15.915l3.664-4.019a.67.67 0 011.009 0c.278.305.278.8 0 1.106L20.26 20.39c-.26.286-.607.443-.975.443s-.714-.157-.975-.443l-1.434-1.573a.836.836 0 010-1.106.67.67 0 011.008 0l1.401 1.537zm6.862 9.085H13.02c-.746 0-1.353.572-1.353 1.274v2.453c0 .702.607 1.273 1.353 1.273h13.127c.746 0 1.353-.571 1.353-1.273v-2.453c0-.702-.607-1.274-1.353-1.274zm-.314 3.334h-12.5v-2.5h12.5v2.5zm-12.5-27.5a.833.833 0 111.667 0 .833.833 0 01-1.667 0zm4.167-.834A.833.833 0 1017.5 5a.833.833 0 000-1.667zm9.268 35.834h-2.702c-.405 0-.733-.373-.733-.834 0-.46.328-.833.733-.833h2.702c.404 0 .732.373.732.833 0 .46-.328.834-.732.834zM37.582 12.5h-6.83c-.415 0-.752.373-.752.833 0 .46.337.834.752.834h6.83c.415 0 .751-.373.751-.834 0-.46-.336-.833-.751-.833zm-25.915 4.167c0-4.595 3.738-8.334 8.333-8.334 4.595 0 8.333 3.739 8.333 8.334S24.595 25 20 25c-4.595 0-8.333-3.738-8.333-8.333zM20 23.333a6.674 6.674 0 01-6.667-6.666A6.674 6.674 0 0120 10a6.674 6.674 0 016.667 6.667A6.674 6.674 0 0120 23.333zM10.833 3.92c0-1.242.986-2.252 2.199-2.252h24.77C39.014 1.668 40 2.678 40 3.92v2.748H10.833V3.919zM39.835 7.5H10.833v26.667h35V10.46a.048.048 0 00-.048-.048h-4.493v21.57a.728.728 0 01-1.457 0V7.5zM5 10.883c0-.027.02-.05.045-.05h4.122V35H5V10.883zm12.5 37.45h15l-2.386-6.666H19.886L17.5 48.333zm30.833-10.416c0 1.148-.977 2.083-2.178 2.083H3.845c-1.201 0-2.178-.934-2.178-2.083v-2.084h46.666v2.084zm-1.466-3.75h1.466V9.684A2.194 2.194 0 0046.134 7.5h-5.3v1.456h4.518c.836 0 1.515.675 1.515 1.504v23.707zm-9.285-25h-6.83c-.415 0-.752.373-.752.833 0 .46.337.833.752.833h6.83c.415 0 .751-.373.751-.833 0-.46-.336-.833-.751-.833zm-6.83 22.5h6.83c.415 0 .751.373.751.833 0 .46-.336.833-.751.833h-6.83c-.415 0-.752-.373-.752-.833 0-.46.337-.833.752-.833zm6.83-4.167h-6.83c-.415 0-.752.373-.752.833 0 .46.337.834.752.834h6.83c.415 0 .751-.373.751-.834 0-.46-.336-.833-.751-.833zm-3.288-10.833h-3.588c-.39 0-.706-.373-.706-.834 0-.46.316-.833.706-.833h3.588c.39 0 .706.373.706.833 0 .46-.316.834-.706.834z" fill="#00FFA5"/></svg>