<svg width="126" height="49" fill="none" xmlns="http://www.w3.org/2000/svg"><path fill-rule="evenodd" clip-rule="evenodd" d="M106.629 13h-5.359c0 5.36 3.23 10.317 7.701 13.847H7v5.306h101.814c-4.395 3.483-7.544 8.39-7.544 13.847h5.359c0-7.327 9.155-13.847 16.371-13.847v-5.306c-7.65 0-16.371-7.377-16.371-13.847z" fill="#00FFA5"/><path fill-rule="evenodd" clip-rule="evenodd" d="M29.594 13.041c0 2.606-2.072 3.153-3.809 3.153h-3.262v-6.32h3.369c2.387 0 3.702 1.126 3.702 3.167zm4.569-.057C34.163 8.676 31.12 6 26.226 6H18v22h4.523v-8.06h3.362L29.896 28H35l-4.602-8.94c2.31-1.069 3.765-3.376 3.765-6.076zM46.748 10.1c2.215 0 3.695 1.526 3.772 3.885l.022.653H55l-.009-.684C54.926 9.048 51.78 6 46.778 6 41.282 6 38 9.58 38 15.577v3.846C38 25.42 41.282 29 46.778 29c4.913 0 8.213-3.079 8.213-7.66v-.675h-4.456l-.015.659c-.05 2.239-1.455 3.575-3.757 3.575-2.848 0-4.232-1.791-4.232-5.476v-3.846c0-3.686 1.38-5.477 4.217-5.477zm24.535 11.202c0 1.243-.457 2.895-4.41 2.895h-3.325V18.48h3.248c4.487 0 4.487 2.124 4.487 2.822zm-4.856-6.497h-2.879v-5.03h3.233c2.323 0 3.501.854 3.501 2.537 0 2.06-2.096 2.493-3.855 2.493zm5.917 1.475c1.562-.91 2.548-2.569 2.548-4.498C74.892 8.215 72.085 6 67.566 6H59v22h8.673C72.809 28 76 25.521 76 21.532c0-2.426-1.432-4.392-3.656-5.252zM93 9.932V6H80v3.932h4.31v14.136H80V28h13v-3.932h-4.31V9.932H93zM19.08 34.997c0 .703.611 1.115 2.64 1.115 1.613 0 2.207-.307 2.207-.873 0-.605-.384-.702-2.443-.832-2.31-.137-3.265-.524-3.265-1.768 0-1.235 1.26-1.639 3.219-1.639 2.043 0 3.32.63 3.327 1.914h-1.072c0-.735-.674-1.026-2.39-1.026-1.604 0-2.011.275-2.011.8 0 .549.407.694 2.232.823 2.137.154 3.476.259 3.476 1.672C25 36.661 23.543 37 21.727 37c-2.247 0-3.65-.485-3.727-2.003h1.08zm13.86-1.001c0-1.462-.898-2.075-2.436-2.075-1.54 0-2.437.605-2.437 2.075 0 1.47.905 2.083 2.437 2.083 1.53 0 2.436-.621 2.436-2.083zm-5.94 0C27 32.171 28.129 31 30.504 31 32.87 31 34 32.18 34 33.996 34 35.813 32.87 37 30.504 37 28.13 37 27 35.82 27 33.996zm10.15 2.031H42V37h-6v-6h1.15v5.027zM50 33.996C50 36.012 48.942 37 46.5 37c-2.45 0-3.5-.979-3.5-3.004V31h1.019v2.98c0 .929.222 2.074 2.481 2.074 2.267 0 2.49-1.154 2.49-2.074V31H50v2.996zm7-2.023h-2.98V37h-1.033v-5.027H50V31h7v.973z" fill="#fff"/><mask id="a" maskUnits="userSpaceOnUse" x="0" y="0" width="126" height="49"><path fill-rule="evenodd" clip-rule="evenodd" d="M0 49h126V0H0v49z" fill="#fff"/></mask><g mask="url(#a)" fill-rule="evenodd" clip-rule="evenodd" fill="#fff"><path d="M60 37h1v-6h-1v6zm7.94-3.004c0-1.462-.897-2.075-2.436-2.075-1.54 0-2.437.605-2.437 2.075 0 1.47.905 2.083 2.437 2.083 1.532 0 2.436-.621 2.436-2.083zm-5.94 0C62 32.171 63.13 31 65.504 31 67.87 31 69 32.18 69 33.996 69 35.813 67.871 37 65.504 37 63.129 37 62 35.82 62 33.996zM76.976 31H78v6h-1.464l-4.512-4.958V37H71v-6h1.464l4.512 4.96V31zm4.104 3.997c0 .703.612 1.115 2.64 1.115 1.613 0 2.208-.307 2.208-.873 0-.605-.384-.702-2.443-.832-2.31-.137-3.266-.524-3.266-1.768 0-1.235 1.261-1.639 3.218-1.639 2.044 0 3.32.63 3.328 1.914h-1.072c0-.735-.674-1.026-2.389-1.026-1.605 0-2.012.275-2.012.8 0 .549.407.694 2.231.823 2.138.154 3.477.259 3.477 1.672C87 36.661 85.544 37 83.727 37c-2.247 0-3.649-.485-3.727-2.003h1.08z"/></g></svg>