<svg width="21" height="18" viewBox="0 0 21 18" fill="none" xmlns="http://www.w3.org/2000/svg">
<path d="M18.969 0.312425C18.637 0.324144 18.3323 0.499925 18.1565 0.781175L8.75028 15.1718L2.65653 9.90618C2.39481 9.63469 2.00223 9.53313 1.64091 9.64641C1.28153 9.75774 1.01395 10.0624 0.951453 10.4335C0.888953 10.8066 1.03934 11.1816 1.34403 11.4062L8.31278 17.4374C8.53153 17.623 8.82059 17.705 9.1038 17.664C9.38895 17.621 9.64091 17.4589 9.79716 17.2187L19.844 1.87492C20.0589 1.56047 20.0765 1.15422 19.8909 0.82219C19.7054 0.492112 19.3479 0.294847 18.969 0.312425Z" fill="#04C700"/>
</svg>
