<svg width="12" height="12" viewBox="0 0 12 12" fill="none" xmlns="http://www.w3.org/2000/svg">
<path d="M3.27363 12C2.47169 12 1.7211 11.6598 1.17911 11.1178C0.128925 10.0676 -0.163844 8.23418 1.30854 6.76179C2.17123 5.8991 5.62689 2.44369 7.35191 0.718303C7.96428 0.105927 8.74378 -0.130484 9.48998 0.0694531C10.2229 0.26573 10.8235 0.866151 11.0198 1.59893C11.2198 2.34561 10.9833 3.12487 10.3711 3.73724L4.5917 9.51675C4.26173 9.84672 3.88906 10.042 3.51431 10.0817C3.14335 10.1207 2.7891 10.0013 2.54122 9.75353C2.09158 9.304 2.02753 8.4579 2.77495 7.71085L6.83444 3.65112C7.0012 3.48436 7.2714 3.48436 7.43815 3.65112C7.60491 3.81787 7.60491 4.0882 7.43815 4.25483L3.37879 8.31444C3.02783 8.66528 2.99562 9.00025 3.14506 9.14969C3.21057 9.2152 3.30999 9.24472 3.42453 9.2324C3.60031 9.21385 3.8005 9.10029 3.98799 8.91279L9.76738 3.13353C10.1638 2.73707 10.3158 2.27059 10.1951 1.82021C10.0761 1.37655 9.71285 1.01327 9.26918 0.89433C8.81893 0.773563 8.35233 0.925559 7.95562 1.32214C6.23072 3.04716 2.77495 6.50306 1.91226 7.36551C0.786314 8.49145 1.05591 9.78695 1.78283 10.5139C2.50975 11.2408 3.80513 11.5106 4.93144 10.3846L10.9748 4.34108C11.1416 4.17432 11.4118 4.17432 11.5785 4.34108C11.7453 4.50783 11.7453 4.77816 11.5785 4.94479L5.53515 10.9884C4.82287 11.7009 4.02556 12 3.27363 12Z" fill="#00A1E1"/>
</svg>
