<svg width="69" height="70" viewBox="0 0 69 70" fill="none" xmlns="http://www.w3.org/2000/svg">
<path d="M64.5435 6.01343H4.45463C2.49815 6.01343 0.912109 7.5962 0.912109 9.54866V65.5535C0.912109 67.506 2.49815 69.0887 4.45463 69.0887H64.5435C66.5 69.0887 68.0861 67.506 68.0861 65.5535V9.54866C68.0861 7.5962 66.5 6.01343 64.5435 6.01343Z" stroke="#F9BC12" stroke-width="1.5" stroke-miterlimit="10"/>
<path d="M62.3541 8.51611H6.64767C5.2156 8.51611 4.05469 9.67464 4.05469 11.1038V63.8042C4.05469 65.2333 5.2156 66.3919 6.64767 66.3919H62.3541C63.7861 66.3919 64.9471 65.2333 64.9471 63.8042V11.1038C64.9471 9.67464 63.7861 8.51611 62.3541 8.51611Z" stroke="#F9BC12" stroke-width="0.75" stroke-miterlimit="10"/>
<path d="M26.3803 24.2363H31.2133C31.294 24.2363 31.3594 24.1711 31.3594 24.0905V19.2676C31.3594 19.1871 31.294 19.1218 31.2133 19.1218H26.3803C26.2997 19.1218 26.2343 19.1871 26.2343 19.2676V24.0905C26.2343 24.1711 26.2997 24.2363 26.3803 24.2363Z" stroke="#F9BC12" stroke-width="0.75" stroke-miterlimit="10"/>
<path d="M37.7632 24.2363H42.5961C42.6768 24.2363 42.7422 24.1711 42.7422 24.0905V19.2676C42.7422 19.1871 42.6768 19.1218 42.5961 19.1218H37.7632C37.6825 19.1218 37.6171 19.1871 37.6171 19.2676V24.0905C37.6171 24.1711 37.6825 24.2363 37.7632 24.2363Z" stroke="#F9BC12" stroke-width="0.75" stroke-miterlimit="10"/>
<path d="M49.1578 24.2363H53.9906C54.0713 24.2363 54.1367 24.1711 54.1367 24.0905V19.2676C54.1367 19.1871 54.0713 19.1218 53.9906 19.1218H49.1578C49.0771 19.1218 49.0117 19.1871 49.0117 19.2676V24.0905C49.0117 24.1711 49.0771 24.2363 49.1578 24.2363Z" stroke="#F9BC12" stroke-width="0.75" stroke-miterlimit="10"/>
<path d="M15.0093 34.9878H19.8422C19.9229 34.9878 19.9883 34.9225 19.9883 34.842V30.019C19.9883 29.9385 19.9229 29.8732 19.8422 29.8732H15.0093C14.9286 29.8732 14.8632 29.9385 14.8632 30.019V34.842C14.8632 34.9225 14.9286 34.9878 15.0093 34.9878Z" stroke="#F9BC12" stroke-width="0.75" stroke-miterlimit="10"/>
<path d="M26.3803 34.9878H31.2133C31.294 34.9878 31.3594 34.9225 31.3594 34.842V30.019C31.3594 29.9385 31.294 29.8732 31.2133 29.8732H26.3803C26.2997 29.8732 26.2343 29.9385 26.2343 30.019V34.842C26.2343 34.9225 26.2997 34.9878 26.3803 34.9878Z" stroke="#F9BC12" stroke-width="0.75" stroke-miterlimit="10"/>
<path d="M37.7632 34.9878H42.5961C42.6768 34.9878 42.7422 34.9225 42.7422 34.842V30.019C42.7422 29.9385 42.6768 29.8732 42.5961 29.8732H37.7632C37.6825 29.8732 37.6171 29.9385 37.6171 30.019V34.842C37.6171 34.9225 37.6825 34.9878 37.7632 34.9878Z" stroke="#F9BC12" stroke-width="0.75" stroke-miterlimit="10"/>
<path d="M49.1578 34.9878H53.9906C54.0713 34.9878 54.1367 34.9225 54.1367 34.842V30.019C54.1367 29.9385 54.0713 29.8732 53.9906 29.8732H49.1578C49.0771 29.8732 49.0117 29.9385 49.0117 30.019V34.842C49.0117 34.9225 49.0771 34.9878 49.1578 34.9878Z" stroke="#F9BC12" stroke-width="0.75" stroke-miterlimit="10"/>
<path d="M15.0093 45.7393H19.8422C19.9229 45.7393 19.9883 45.674 19.9883 45.5935V40.7705C19.9883 40.69 19.9229 40.6247 19.8422 40.6247H15.0093C14.9286 40.6247 14.8632 40.69 14.8632 40.7705V45.5935C14.8632 45.674 14.9286 45.7393 15.0093 45.7393Z" stroke="#F9BC12" stroke-width="0.75" stroke-miterlimit="10"/>
<path d="M26.3803 45.7393H31.2133C31.294 45.7393 31.3594 45.674 31.3594 45.5935V40.7705C31.3594 40.69 31.294 40.6247 31.2133 40.6247H26.3803C26.2997 40.6247 26.2343 40.69 26.2343 40.7705V45.5935C26.2343 45.674 26.2997 45.7393 26.3803 45.7393Z" stroke="#F9BC12" stroke-width="0.75" stroke-miterlimit="10"/>
<path d="M49.1578 45.7393H53.9906C54.0713 45.7393 54.1367 45.674 54.1367 45.5935V40.7705C54.1367 40.69 54.0713 40.6247 53.9906 40.6247H49.1578C49.0771 40.6247 49.0117 40.69 49.0117 40.7705V45.5935C49.0117 45.674 49.0771 45.7393 49.1578 45.7393Z" stroke="#F9BC12" stroke-width="0.75" stroke-miterlimit="10"/>
<path d="M15.0093 56.4907H19.8422C19.9229 56.4907 19.9883 56.4255 19.9883 56.3449V51.522C19.9883 51.4414 19.9229 51.3762 19.8422 51.3762H15.0093C14.9286 51.3762 14.8632 51.4414 14.8632 51.522V56.3449C14.8632 56.4255 14.9286 56.4907 15.0093 56.4907Z" stroke="#F9BC12" stroke-width="0.75" stroke-miterlimit="10"/>
<path d="M26.3803 56.4907H31.2133C31.294 56.4907 31.3594 56.4255 31.3594 56.3449V51.522C31.3594 51.4414 31.294 51.3762 31.2133 51.3762H26.3803C26.2997 51.3762 26.2343 51.4414 26.2343 51.522V56.3449C26.2343 56.4255 26.2997 56.4907 26.3803 56.4907Z" stroke="#F9BC12" stroke-width="0.75" stroke-miterlimit="10"/>
<path d="M37.7632 56.4907H42.5961C42.6768 56.4907 42.7422 56.4255 42.7422 56.3449V51.522C42.7422 51.4414 42.6768 51.3762 42.5961 51.3762H37.7632C37.6825 51.3762 37.6171 51.4414 37.6171 51.522V56.3449C37.6171 56.4255 37.6825 56.4907 37.7632 56.4907Z" stroke="#F9BC12" stroke-width="0.75" stroke-miterlimit="10"/>
<path d="M49.1578 56.4907H53.9906C54.0713 56.4907 54.1367 56.4255 54.1367 56.3449V51.522C54.1367 51.4414 54.0713 51.3762 53.9906 51.3762H49.1578C49.0771 51.3762 49.0117 51.4414 49.0117 51.522V56.3449C49.0117 56.4255 49.0771 56.4907 49.1578 56.4907Z" stroke="#F9BC12" stroke-width="0.75" stroke-miterlimit="10"/>
<path d="M22.7882 0.607422H19.9883V14.7848H22.7882V0.607422Z" fill="white" stroke="#F9BC12" stroke-miterlimit="10"/>
<path d="M49.0109 0.607422H46.2109V14.7848H49.0109V0.607422Z" fill="white" stroke="#F9BC12" stroke-miterlimit="10"/>
<path d="M35.8398 40.6368C36.8228 41.2268 37.7373 41.9235 38.5667 42.7142C39.4439 43.5103 40.177 44.4515 40.7337 45.4962L39.638 45.6663C39.7834 44.9953 39.9829 44.3372 40.2345 43.6983C40.4897 43.0714 40.7951 42.4661 41.1475 41.8881C41.8342 40.707 42.8156 39.7235 43.9962 39.0332C43.2047 40.0536 42.5423 41.1675 42.0241 42.3498C41.7684 42.9207 41.5493 43.5646 41.3423 44.1113C41.136 44.6968 40.9612 45.2929 40.8188 45.8971L40.3928 47.5615L39.638 45.9943C39.1504 45.0466 38.5671 44.1511 37.8972 43.3216C37.2033 42.4348 36.5094 41.5601 35.8398 40.6368Z" fill="#F9BC12"/>
</svg>
