<svg width="21" height="21" viewBox="0 0 21 21" fill="none" xmlns="http://www.w3.org/2000/svg">
<path d="M10.4998 1.26C5.40162 1.26 1.25977 5.40186 1.25977 10.5C1.25977 15.128 4.67333 18.9581 9.11918 19.626L9.60152 19.699V12.4179H7.41867V10.9397H9.60152V8.97668C9.60152 7.76789 9.89159 6.97176 10.3718 6.47227C10.852 5.97278 11.5615 5.72086 12.5489 5.72086C13.3384 5.72086 13.6456 5.7687 13.9377 5.80453V7.01449H12.9098C12.3266 7.01449 11.8482 7.33988 11.5998 7.77328C11.3515 8.20669 11.2741 8.72416 11.2741 9.25149V10.9389H13.8458L13.617 12.4171H11.2741V19.7105L11.7507 19.6457C16.2598 19.0341 19.7398 15.1733 19.7398 10.5C19.7398 5.40186 15.5979 1.26 10.4998 1.26ZM10.4998 2.1C15.1439 2.1 18.8998 5.85583 18.8998 10.5C18.8998 14.5865 15.9748 17.9474 12.1141 18.7039V13.2571H14.3372L14.8253 10.0989H12.1141V9.25149C12.1141 8.81575 12.1939 8.42533 12.3282 8.19082C12.4626 7.95632 12.5921 7.85449 12.9098 7.85449H14.7777V5.0441L14.4135 4.99488C14.1616 4.9608 13.5864 4.88086 12.5489 4.88086C11.4136 4.88086 10.4391 5.19013 9.76641 5.88985C9.09371 6.58956 8.76152 7.63146 8.76152 8.97668V10.0997H6.57867V13.2579H8.76152V18.6777C4.9629 17.873 2.09977 14.5423 2.09977 10.5C2.09977 5.85583 5.85559 2.1 10.4998 2.1Z" fill="#00A1E1"/>
</svg>
