<svg width="25" height="25" viewBox="0 0 25 25" fill="none" xmlns="http://www.w3.org/2000/svg">
<path d="M12.4996 24.1365C18.9262 24.1365 24.136 18.9267 24.136 12.5001C24.136 6.07355 18.9262 0.86377 12.4996 0.86377C6.07306 0.86377 0.863281 6.07355 0.863281 12.5001C0.863281 18.9267 6.07306 24.1365 12.4996 24.1365Z" fill="#C8C8C8"/>
<path d="M10.7302 8.67279C10.7302 9.00915 10.7302 10.5092 10.7302 10.5092H9.38477V12.7546H10.7302V18.9092H13.4939V12.7501H15.3484C15.3484 12.7501 15.5211 11.6728 15.6075 10.4955C15.3666 10.4955 13.5075 10.4955 13.5075 10.4955C13.5075 10.4955 13.5075 9.19097 13.5075 8.95915C13.5075 8.73188 13.8075 8.42279 14.1075 8.42279C14.4029 8.42279 15.0302 8.42279 15.612 8.42279C15.612 8.11824 15.612 7.05915 15.612 6.08643C14.8348 6.08643 13.9529 6.08643 13.5666 6.08643C10.662 6.09097 10.7302 8.33643 10.7302 8.67279Z" fill="white"/>
</svg>
