<svg width="28" height="28" viewBox="0 0 28 28" fill="none" xmlns="http://www.w3.org/2000/svg">
<path d="M13.9998 27.9636C21.7117 27.9636 27.9634 21.7119 27.9634 14C27.9634 6.28808 21.7117 0.0363464 13.9998 0.0363464C6.28787 0.0363464 0.0361328 6.28808 0.0361328 14C0.0361328 21.7119 6.28787 27.9636 13.9998 27.9636Z" fill="#3F65A6"/>
<path d="M11.8779 9.40732C11.8779 9.81095 11.8779 11.611 11.8779 11.611H10.2633V14.3055H11.8779V21.691H15.1942V14.3H17.4197C17.4197 14.3 17.6269 13.0073 17.7306 11.5946C17.4415 11.5946 15.2106 11.5946 15.2106 11.5946C15.2106 11.5946 15.2106 10.0291 15.2106 9.75095C15.2106 9.47823 15.5706 9.10732 15.9306 9.10732C16.2851 9.10732 17.0379 9.10732 17.736 9.10732C17.736 8.74186 17.736 7.47095 17.736 6.30368C16.8033 6.30368 15.7451 6.30368 15.2815 6.30368C11.796 6.30913 11.8779 9.00368 11.8779 9.40732Z" fill="white"/>
</svg>
