<svg width="25" height="25" viewBox="0 0 25 25" fill="none" xmlns="http://www.w3.org/2000/svg">
<path d="M18.4163 7.52075V8.97909C18.4163 9.68742 17.8434 10.2708 17.1143 10.2708C16.3955 10.2708 15.8122 9.68742 15.8122 8.97909V7.52075C15.8122 7.17542 15.9494 6.84423 16.1935 6.60004C16.4377 6.35585 16.7689 6.21867 17.1143 6.21867C17.8434 6.21867 18.4163 6.802 18.4163 7.52075ZM13.8018 8.70825V16.2812C13.8018 16.9999 13.2184 17.5833 12.4997 17.5833C11.7809 17.5833 11.1976 16.9999 11.1976 16.2812V8.70825C11.1976 7.99992 11.7809 7.40617 12.4997 7.40617C13.2184 7.40617 13.8018 7.99992 13.8018 8.70825ZM22.9163 11.7708V13.2291C22.9163 13.9374 22.333 14.5208 21.6143 14.5208C20.8955 14.5208 20.3122 13.9374 20.3122 13.2291V11.7708C20.3122 11.052 20.8955 10.4791 21.6143 10.4791C22.333 10.4791 22.9163 11.052 22.9163 11.7708ZM4.68717 11.7708V13.2291C4.68717 13.9374 4.10384 14.5208 3.38509 14.5208C2.65592 14.5208 2.08301 13.9374 2.08301 13.2291V11.7708C2.08301 11.052 2.65592 10.4791 3.38509 10.4791C4.10384 10.4791 4.68717 11.052 4.68717 11.7708ZM9.18717 16.0208V17.4687C9.18717 18.177 8.60384 18.7499 7.88509 18.7499C7.16634 18.7499 6.58301 18.177 6.58301 17.4687V16.0208C6.58301 15.2916 7.16634 14.7187 7.88509 14.7187C8.23043 14.7187 8.56162 14.8559 8.8058 15.1C9.04999 15.3442 9.18717 15.6754 9.18717 16.0208ZM13.8018 20.1666V21.6145C13.8018 21.9598 13.6646 22.291 13.4204 22.5352C13.1762 22.7794 12.845 22.9166 12.4997 22.9166C12.1543 22.9166 11.8232 22.7794 11.579 22.5352C11.3348 22.291 11.1976 21.9598 11.1976 21.6145V20.1666C11.1976 19.8213 11.3348 19.4901 11.579 19.2459C11.8232 19.0017 12.1543 18.8645 12.4997 18.8645C12.845 18.8645 13.1762 19.0017 13.4204 19.2459C13.6646 19.4901 13.8018 19.8213 13.8018 20.1666ZM13.8018 3.38534V4.83325C13.8018 5.17859 13.6646 5.50978 13.4204 5.75396C13.1762 5.99815 12.845 6.13534 12.4997 6.13534C12.1543 6.13534 11.8232 5.99815 11.579 5.75396C11.3348 5.50978 11.1976 5.17859 11.1976 4.83325V3.38534C11.1976 2.65617 11.7809 2.08325 12.4997 2.08325C12.845 2.08325 13.1762 2.22044 13.4204 2.46462C13.6646 2.70881 13.8018 3.04 13.8018 3.38534ZM18.4163 12.8541V17.4687C18.4163 18.1874 17.8434 18.7499 17.1143 18.7499C16.3955 18.7499 15.8122 18.1874 15.8122 17.4687V12.8541C15.8122 12.1249 16.3955 11.552 17.1143 11.552C17.8434 11.552 18.4163 12.1249 18.4163 12.8541ZM9.18717 7.52075V12.1353C9.18717 12.8645 8.60384 13.4374 7.88509 13.4374C7.53976 13.4374 7.20857 13.3002 6.96438 13.056C6.72019 12.8119 6.58301 12.4807 6.58301 12.1353V7.52075C6.58301 7.17542 6.72019 6.84423 6.96438 6.60004C7.20857 6.35585 7.53976 6.21867 7.88509 6.21867C8.23043 6.21867 8.56162 6.35585 8.8058 6.60004C9.04999 6.84423 9.18717 7.17542 9.18717 7.52075Z" fill="black"/>
</svg>
