<svg width="25" height="25" viewBox="0 0 25 25" fill="none" xmlns="http://www.w3.org/2000/svg">
<path d="M18.4167 7.52075V8.97909C18.4167 9.68742 17.8438 10.2708 17.1146 10.2708C16.3959 10.2708 15.8125 9.68742 15.8125 8.97909V7.52075C15.8125 7.17542 15.9497 6.84423 16.1939 6.60004C16.4381 6.35585 16.7693 6.21867 17.1146 6.21867C17.8438 6.21867 18.4167 6.802 18.4167 7.52075ZM13.8021 8.70825V16.2812C13.8021 16.9999 13.2188 17.5833 12.5 17.5833C11.7813 17.5833 11.198 16.9999 11.198 16.2812V8.70825C11.198 7.99992 11.7813 7.40617 12.5 7.40617C13.2188 7.40617 13.8021 7.99992 13.8021 8.70825ZM22.9167 11.7708V13.2291C22.9167 13.9374 22.3334 14.5208 21.6146 14.5208C20.8959 14.5208 20.3125 13.9374 20.3125 13.2291V11.7708C20.3125 11.052 20.8959 10.4791 21.6146 10.4791C22.3334 10.4791 22.9167 11.052 22.9167 11.7708ZM4.68754 11.7708V13.2291C4.68754 13.9374 4.10421 14.5208 3.38546 14.5208C2.65629 14.5208 2.08337 13.9374 2.08337 13.2291V11.7708C2.08337 11.052 2.65629 10.4791 3.38546 10.4791C4.10421 10.4791 4.68754 11.052 4.68754 11.7708ZM9.18754 16.0208V17.4687C9.18754 18.177 8.60421 18.7499 7.88546 18.7499C7.16671 18.7499 6.58337 18.177 6.58337 17.4687V16.0208C6.58337 15.2916 7.16671 14.7187 7.88546 14.7187C8.23079 14.7187 8.56198 14.8559 8.80617 15.1C9.05036 15.3442 9.18754 15.6754 9.18754 16.0208ZM13.8021 20.1666V21.6145C13.8021 21.9598 13.6649 22.291 13.4208 22.5352C13.1766 22.7794 12.8454 22.9166 12.5 22.9166C12.1547 22.9166 11.8235 22.7794 11.5793 22.5352C11.3351 22.291 11.198 21.9598 11.198 21.6145V20.1666C11.198 19.8213 11.3351 19.4901 11.5793 19.2459C11.8235 19.0017 12.1547 18.8645 12.5 18.8645C12.8454 18.8645 13.1766 19.0017 13.4208 19.2459C13.6649 19.4901 13.8021 19.8213 13.8021 20.1666ZM13.8021 3.38534V4.83325C13.8021 5.17859 13.6649 5.50978 13.4208 5.75396C13.1766 5.99815 12.8454 6.13534 12.5 6.13534C12.1547 6.13534 11.8235 5.99815 11.5793 5.75396C11.3351 5.50978 11.198 5.17859 11.198 4.83325V3.38534C11.198 2.65617 11.7813 2.08325 12.5 2.08325C12.8454 2.08325 13.1766 2.22044 13.4208 2.46462C13.6649 2.70881 13.8021 3.04 13.8021 3.38534ZM18.4167 12.8541V17.4687C18.4167 18.1874 17.8438 18.7499 17.1146 18.7499C16.3959 18.7499 15.8125 18.1874 15.8125 17.4687V12.8541C15.8125 12.1249 16.3959 11.552 17.1146 11.552C17.8438 11.552 18.4167 12.1249 18.4167 12.8541ZM9.18754 7.52075V12.1353C9.18754 12.8645 8.60421 13.4374 7.88546 13.4374C7.54012 13.4374 7.20893 13.3002 6.96475 13.056C6.72056 12.8119 6.58337 12.4807 6.58337 12.1353V7.52075C6.58337 7.17542 6.72056 6.84423 6.96475 6.60004C7.20893 6.35585 7.54012 6.21867 7.88546 6.21867C8.23079 6.21867 8.56198 6.35585 8.80617 6.60004C9.05036 6.84423 9.18754 7.17542 9.18754 7.52075Z" fill="white"/>
</svg>
