<svg width="25" height="25" viewBox="0 0 25 25" fill="none" xmlns="http://www.w3.org/2000/svg">
<path d="M22.9769 15.4141L17.1487 11.6328C17.9144 10.3828 18.3128 8.95314 18.3206 7.37502C18.3284 4.1797 15.7347 1.57033 12.5394 1.57033C9.33623 1.56252 6.73467 4.14846 6.71904 7.35158C6.71123 8.92971 7.10186 10.3594 7.86748 11.6172L2.02373 15.3672C1.78154 15.5235 1.63311 15.7969 1.63311 16.0938C1.62529 16.3906 1.77373 16.6563 2.02373 16.8203L12.0081 23.3047C12.1487 23.3985 12.3128 23.4453 12.4769 23.4453C12.6409 23.4453 12.805 23.3985 12.9456 23.3047L22.969 16.8672C23.219 16.711 23.3675 16.4375 23.3675 16.1406C23.3675 15.8438 23.2269 15.5703 22.9769 15.4141ZM15.1253 7.33596C15.1175 8.76564 13.9534 9.92971 12.5159 9.92971C11.0862 9.92971 9.92217 8.75783 9.92217 7.32814C9.92998 5.89064 11.094 4.72658 12.5315 4.73439C13.9612 4.73439 15.1253 5.90627 15.1253 7.33596ZM12.4847 21.5469L4.08623 16.086L8.90654 12.9922L8.96123 13.0469C9.00811 13.0938 9.05498 13.1406 9.10186 13.1875C9.15654 13.2422 9.21123 13.2969 9.26592 13.3516C9.31279 13.3985 9.35967 13.4375 9.40654 13.4844C9.46123 13.5391 9.51592 13.586 9.57061 13.6328C9.61748 13.6719 9.66436 13.711 9.71123 13.75C9.76592 13.7969 9.82061 13.8438 9.87529 13.8906C9.92217 13.9219 9.96904 13.961 10.0081 13.9922C10.0628 14.0313 10.1253 14.0781 10.18 14.1172C10.219 14.1485 10.2581 14.1719 10.305 14.211C10.3597 14.25 10.4222 14.2891 10.4847 14.3281C10.5159 14.3516 10.555 14.375 10.5862 14.3985C10.68 14.4531 10.7737 14.5156 10.8597 14.5625C10.8909 14.586 10.9378 14.6094 10.969 14.6328C11.0237 14.6641 11.0706 14.6875 11.1175 14.711C11.1565 14.7344 11.1956 14.7578 11.2347 14.7735C11.2737 14.7969 11.3128 14.8203 11.3519 14.8438C11.3909 14.8594 11.43 14.875 11.4612 14.8985C11.5003 14.9141 11.5394 14.9297 11.5706 14.9531C11.6019 14.9688 11.6409 14.9844 11.6722 15C11.7034 15.0156 11.7347 15.0313 11.7659 15.0469C11.7972 15.0547 11.8284 15.0703 11.8519 15.086C11.8831 15.0938 11.9065 15.1016 11.93 15.1172C11.9612 15.125 11.9847 15.1406 12.0081 15.1485C12.0315 15.1563 12.0472 15.1563 12.0628 15.1719C12.0862 15.1797 12.1019 15.1797 12.1175 15.1875C12.1331 15.1953 12.1487 15.2031 12.1644 15.211C12.1722 15.211 12.18 15.2188 12.1956 15.2188C12.2112 15.2266 12.2269 15.2266 12.2269 15.2344C12.3206 15.2656 12.4144 15.2813 12.5003 15.2813C12.6019 15.2813 12.6878 15.2656 12.7815 15.2344C12.7894 15.2344 12.7972 15.2266 12.8128 15.2266C12.8206 15.2188 12.8284 15.2188 12.844 15.2188C12.8597 15.211 12.8753 15.211 12.8909 15.2031C12.9065 15.1953 12.9222 15.1875 12.9456 15.1797C12.9612 15.1719 12.9769 15.1719 13.0003 15.1563C13.0237 15.1485 13.0472 15.1406 13.0706 15.125C13.094 15.1172 13.1253 15.1016 13.1487 15.0938C13.1722 15.086 13.2034 15.0703 13.2269 15.0625C13.2581 15.0469 13.2894 15.0313 13.3284 15.0156C13.3597 15 13.3909 14.9844 13.43 14.9688C13.4612 14.9531 13.5003 14.9375 13.5315 14.9141C13.5706 14.8985 13.6097 14.875 13.6487 14.8594C13.68 14.8438 13.7269 14.8203 13.7659 14.7969C13.805 14.7735 13.844 14.7578 13.8909 14.7344C13.93 14.711 13.969 14.6797 14.0159 14.6563C14.0628 14.6328 14.1019 14.6016 14.1487 14.5781C14.2034 14.5391 14.2659 14.5 14.3362 14.461C14.4144 14.4141 14.4847 14.3594 14.5628 14.3125C14.6097 14.2813 14.6565 14.2578 14.7034 14.2266C14.7581 14.1875 14.805 14.1485 14.8597 14.1094C14.9065 14.0781 14.9534 14.0469 15.0003 14.0078C15.055 13.9688 15.1019 13.9219 15.1644 13.8828C15.2112 13.8438 15.2581 13.8047 15.305 13.7656C15.3597 13.7266 15.4144 13.6797 15.469 13.6328C15.5159 13.5938 15.5706 13.5469 15.6097 13.5078C15.6644 13.461 15.7112 13.4063 15.7737 13.3594C15.8206 13.3125 15.8675 13.2656 15.9144 13.2188C15.969 13.1641 16.0159 13.1172 16.0706 13.0625C16.0784 13.0469 16.1019 13.0313 16.1175 13.0078L20.93 16.1328L12.4847 21.5469Z" fill="white"/>
</svg>
