<svg width="25" height="17" viewBox="0 0 25 17" fill="none" xmlns="http://www.w3.org/2000/svg">
<g clip-path="url(#clip0_437:744)">
<path d="M3.92383 1.47344V3.06695L12.5969 7.58187L21.2916 3.06695V1.39172L3.92383 1.47344Z" fill="white"/>
<path d="M15.4814 13.2818C15.4814 12.5638 15.6318 11.8528 15.9241 11.1897C16.2164 10.5265 16.6448 9.92431 17.1846 9.41753C17.7245 8.91074 18.3653 8.50938 19.0702 8.23646C19.7751 7.96354 20.5303 7.82444 21.2923 7.82712V7.82712V4.25195L12.6193 8.76688L3.94629 4.25195V15.4269H15.9801C15.6589 14.7519 15.4892 14.0216 15.4814 13.2818V13.2818Z" fill="white"/>
<path d="M22.1601 11.6884L22.2687 11.2185H23.2877L22.789 13.5474C22.7805 13.6767 22.7805 13.8063 22.789 13.9356C22.789 14.1808 22.8974 14.3238 23.1142 14.3238C23.331 14.3238 23.4828 14.2012 23.6779 13.9356C23.9929 13.5181 24.1599 13.0177 24.155 12.5055C24.1598 11.8361 23.8875 11.1912 23.3961 10.7077C23.1146 10.4397 22.7754 10.2317 22.4014 10.0978C22.0273 9.9639 21.6271 9.90715 21.2278 9.93141C20.5718 9.91493 19.9269 10.0936 19.3848 10.4421C18.9048 10.7367 18.5158 11.1454 18.2573 11.6271C18.0246 12.0862 17.906 12.5892 17.9104 13.098C17.9001 13.7152 18.0891 14.3208 18.4525 14.8345C18.7749 15.343 19.2721 15.7323 19.8618 15.9377C20.3026 16.0742 20.7638 16.1432 21.2278 16.142C21.9682 16.1246 22.7005 15.9935 23.3961 15.7538L23.613 16.6323C22.8305 16.8799 22.01 17.0042 21.1845 17C20.0488 17.0558 18.9352 16.6889 18.0838 15.9785C17.6541 15.6128 17.3203 15.1583 17.1082 14.6506C16.9097 14.1542 16.8069 13.6284 16.8046 13.098C16.7832 12.5598 16.8822 12.0234 17.0951 11.5237C17.308 11.0239 17.6302 10.5719 18.0405 10.197C18.8694 9.45457 19.976 9.05073 21.1194 9.07338C21.6323 9.04532 22.1458 9.11801 22.6273 9.28682C23.1088 9.45563 23.5477 9.71687 23.9164 10.054C24.2476 10.3635 24.5087 10.7331 24.6839 11.1404C24.859 11.5478 24.9447 11.9844 24.9356 12.4238C24.9673 13.11 24.7534 13.7862 24.3284 14.3442C24.1753 14.5676 23.9672 14.753 23.7219 14.8846C23.4765 15.0162 23.2012 15.0901 22.9191 15.1001C22.7114 15.0996 22.5081 15.0428 22.3336 14.9366C22.1587 14.8274 22.0347 14.6593 21.9868 14.4668C21.8245 14.6992 21.6018 14.8888 21.34 15.0175C21.0782 15.1462 20.7859 15.2098 20.4907 15.2022C20.2629 15.2064 20.0369 15.1648 19.8275 15.0803C19.6182 14.9957 19.4303 14.8702 19.2765 14.7119C19.0995 14.5357 18.9636 14.3265 18.8777 14.0977C18.7918 13.869 18.7577 13.6259 18.7777 13.384C18.7627 13.0781 18.8126 12.7724 18.9243 12.4848C19.036 12.1972 19.2073 11.9334 19.4282 11.7088C19.6198 11.4951 19.8589 11.3238 20.1287 11.2073C20.3986 11.0907 20.6925 11.0318 20.9893 11.0346C21.2295 11.0311 21.4661 11.0903 21.6727 11.2057C21.8794 11.3211 22.0481 11.4882 22.1601 11.6884V11.6884ZM20.8158 14.2216C20.9636 14.2185 21.1088 14.1838 21.2402 14.1201C21.3717 14.0564 21.4861 13.9653 21.5748 13.8539C21.8042 13.598 21.9205 13.2689 21.9 12.9346C21.9047 12.7224 21.8363 12.5145 21.7049 12.3421C21.6298 12.2608 21.5362 12.1965 21.4311 12.154C21.326 12.1116 21.212 12.0921 21.0977 12.0969C20.9462 12.0969 20.7969 12.1302 20.6614 12.194C20.5259 12.2578 20.4081 12.3505 20.3172 12.4647C20.0963 12.709 19.9802 13.0224 19.9919 13.3431C19.9828 13.4633 20.0014 13.584 20.0463 13.6968C20.0912 13.8096 20.1613 13.912 20.2521 13.9969C20.3251 14.0682 20.4127 14.1249 20.5096 14.1635C20.6065 14.2021 20.7106 14.2219 20.8158 14.2216V14.2216Z" fill="white"/>
</g>
<defs>
<clipPath id="clip0_437:744">
<rect width="25" height="17" fill="white"/>
</clipPath>
</defs>
</svg>
