<svg width="82" height="65" viewBox="0 0 82 65" fill="none" xmlns="http://www.w3.org/2000/svg">
<g clip-path="url(#clip0_437:1006)">
<path d="M0.990234 48.9125L41.1534 32.4409L81.0081 48.9125L40.9992 64.6011L0.990234 48.9125Z" stroke="#F9BC12" stroke-miterlimit="10"/>
<path d="M13.9707 54.0018L52.7097 37.22" stroke="#F9BC12" stroke-miterlimit="10"/>
<path d="M13.9707 54.0018L52.7097 37.22" stroke="#F9BC12" stroke-miterlimit="10"/>
<path d="M27.3613 59.5636L66.1003 42.7817" stroke="#F9BC12" stroke-miterlimit="10"/>
<path d="M14.2207 43.4834L54.2737 59.0465" stroke="#F9BC12" stroke-miterlimit="10"/>
<path d="M28.541 37.9658L68.917 53.6545" stroke="#F9BC12" stroke-miterlimit="10"/>
<path d="M56.8861 18.008C56.8861 30.2177 40.978 46.4898 40.978 46.4898C40.978 46.4898 25.0625 30.2398 25.0625 18.008C25.0625 5.77621 32.1907 0.775635 40.978 0.775635C49.7653 0.775635 56.8861 5.76143 56.8861 18.008Z" fill="white" stroke="#F9BC12" stroke-width="2" stroke-miterlimit="10"/>
<path d="M54.0085 18.2147C54.0085 28.0459 41.0001 41.1567 41.0001 41.1567C41.0001 41.1567 27.9844 28.0459 27.9844 18.2147C27.9844 8.38342 33.8132 4.33569 41.0001 4.33569C48.1871 4.33569 54.0085 8.40558 54.0085 18.2147Z" fill="white" stroke="#F9BC12" stroke-miterlimit="10"/>
<path d="M41.0004 21.1694C44.1385 21.1694 46.6824 18.6098 46.6824 15.4524C46.6824 12.295 44.1385 9.73535 41.0004 9.73535C37.8623 9.73535 35.3184 12.295 35.3184 15.4524C35.3184 18.6098 37.8623 21.1694 41.0004 21.1694Z" fill="white" stroke="#F9BC12" stroke-miterlimit="10"/>
</g>
<defs>
<clipPath id="clip0_437:1006">
<rect width="82" height="65" fill="white"/>
</clipPath>
</defs>
</svg>
