<svg width="37" height="37" viewBox="0 0 37 37" fill="none" xmlns="http://www.w3.org/2000/svg">
<path d="M13.5621 23.7754H12.7383V27.4826H13.5621C13.9668 27.4826 14.292 27.3453 14.5305 27.0707C14.7689 26.7961 14.8918 26.442 14.8918 26.0156V25.2424C14.8918 24.816 14.7689 24.4691 14.5305 24.1945C14.292 23.9127 13.9668 23.7754 13.5621 23.7754Z" fill="#11B24C"/>
<path d="M26.4182 20.6606H2.91016V30.337H22.8771L26.4182 20.6606ZM10.3969 25.8132C10.0789 26.1022 9.64531 26.2396 9.08887 26.2396H7.99766V28.1546H7.15215V23.096H9.08887C9.64531 23.096 10.0861 23.2405 10.3969 23.5296C10.7148 23.8187 10.8738 24.1944 10.8738 24.6642C10.8738 25.1483 10.7148 25.5241 10.3969 25.8132ZM15.7301 26.0155C15.7301 26.6515 15.5277 27.1646 15.1303 27.562C14.7256 27.9595 14.2053 28.1618 13.5621 28.1618H11.8928V23.1032H13.5621C14.2053 23.1032 14.7256 23.3056 15.1303 23.703C15.535 24.1005 15.7301 24.6208 15.7301 25.2495V26.0155ZM20.1094 23.7753H17.7174V25.3218H19.7553V26.0011H17.7174V28.1618H16.8719V23.1032H20.1094V23.7753Z" fill="#11B24C"/>
<path d="M9.09121 23.7754H8V25.5604H9.09121C9.40195 25.5604 9.64043 25.4736 9.79941 25.3074C9.9584 25.1412 10.0379 24.9316 10.0379 24.6715C10.0379 24.4113 9.9584 24.2018 9.79941 24.0283C9.64043 23.8621 9.40195 23.7754 9.09121 23.7754Z" fill="#11B24C"/>
<path d="M25.4992 0.433594H7.75801C7.23047 0.433594 6.79688 0.867187 6.79688 1.39473V19.9525H8.71914V2.35586H25.4992V9.01875H32.1621V34.6441H8.71914V31.0453H6.79688V35.6053C6.79688 36.1328 7.23047 36.5664 7.75801 36.5664H33.1232C33.6508 36.5664 34.0844 36.1328 34.0844 35.6053V9.01875L25.4992 0.433594Z" fill="#11B24C"/>
<path d="M29.5973 12.3862H11.2852V13.8026H29.5973V12.3862Z" fill="#11B24C"/>
<path d="M26.6994 15.1396H11.2852V16.5561H26.6994V15.1396Z" fill="#11B24C"/>
</svg>
