<svg width="20" height="20" viewBox="0 0 20 20" fill="none" xmlns="http://www.w3.org/2000/svg">
<g clip-path="url(#clip0_437:724)">
<path d="M19.91 15.9413L19.8105 15.6414C19.5747 14.9406 18.8019 14.2098 18.092 14.0172L15.4644 13.2994C14.7518 13.1055 13.7354 13.3662 13.2141 13.8875L12.2631 14.8385C8.80707 13.9046 6.09701 11.1945 5.16441 7.73913L6.11542 6.78812C6.63675 6.26678 6.89738 5.25168 6.70353 4.53912L5.98703 1.91026C5.79317 1.199 5.06096 0.426213 4.36152 0.19304L4.06158 0.0921923C3.3608 -0.140981 2.36138 0.0948328 1.84008 0.61613L0.417572 2.03994C0.163441 2.29273 0.00102071 3.01576 0.00102071 3.01841C-0.0487324 7.53475 1.72218 11.886 4.91686 15.0808C8.1037 18.2676 12.4387 20.0359 16.9419 19.9979C16.9655 19.9979 17.7094 19.8381 17.9636 19.5853L19.3861 18.1628C19.9074 17.6415 20.1432 16.6421 19.91 15.9413Z" fill="white"/>
</g>
<defs>
<clipPath id="clip0_437:724">
<rect width="20" height="20" fill="white"/>
</clipPath>
</defs>
</svg>
