<svg width="20" height="20" viewBox="0 0 20 20" fill="none" xmlns="http://www.w3.org/2000/svg">
<path d="M6.49047 20H4.86816C4.58008 19.9988 4.06492 19.6655 4.05027 19.6521C1.46242 17.1082 0 13.6291 0 9.99758C0 6.35621 1.47094 2.86621 4.07348 0.321055C4.07473 0.319844 4.58008 0 4.86816 0H6.49047C7.08496 0 7.7893 0.43457 8.05543 0.968008L8.16895 1.19629C8.43383 1.7273 8.41066 2.58547 8.11645 3.10059L7.02637 5.00734C6.73094 5.52371 6.0034 5.95461 5.40895 5.95461H4.32617C2.88816 8.45461 2.88816 11.5442 4.32496 14.0454H5.40895C6.00344 14.0454 6.73098 14.4763 7.02637 14.9927L8.11523 16.8995C8.40941 17.4146 8.43383 18.2703 8.16895 18.805L8.05543 19.0332C7.78809 19.5642 7.08496 20 6.49047 20ZM20 5V15C20 16.3806 18.8806 17.5 17.5 17.5H9.55813C9.5093 17.0618 9.40309 16.6345 9.20047 16.2793L8.1116 14.3726C7.58793 13.4583 6.45266 12.7954 5.40895 12.7954H5.09035C4.30176 11.0205 4.30176 8.97824 5.09035 7.20461H5.40895C6.45266 7.20461 7.58789 6.54176 8.1116 5.62746L9.20168 3.7207C9.40434 3.36547 9.51051 2.93699 9.55934 2.5H17.5C18.8806 2.5 20 3.61937 20 5ZM12.8125 14.375C12.8125 13.8574 12.3926 13.4375 11.875 13.4375C11.3574 13.4375 10.9375 13.8574 10.9375 14.375C10.9375 14.8926 11.3574 15.3125 11.875 15.3125C12.3926 15.3125 12.8125 14.8926 12.8125 14.375ZM12.8125 11.875C12.8125 11.3574 12.3926 10.9375 11.875 10.9375C11.3574 10.9375 10.9375 11.3574 10.9375 11.875C10.9375 12.3926 11.3574 12.8125 11.875 12.8125C12.3926 12.8125 12.8125 12.3926 12.8125 11.875ZM12.8125 9.375C12.8125 8.85742 12.3926 8.4375 11.875 8.4375C11.3574 8.4375 10.9375 8.85742 10.9375 9.375C10.9375 9.89258 11.3574 10.3125 11.875 10.3125C12.3926 10.3125 12.8125 9.89258 12.8125 9.375ZM15.3125 14.375C15.3125 13.8574 14.8926 13.4375 14.375 13.4375C13.8574 13.4375 13.4375 13.8574 13.4375 14.375C13.4375 14.8926 13.8574 15.3125 14.375 15.3125C14.8926 15.3125 15.3125 14.8926 15.3125 14.375ZM15.3125 11.875C15.3125 11.3574 14.8926 10.9375 14.375 10.9375C13.8574 10.9375 13.4375 11.3574 13.4375 11.875C13.4375 12.3926 13.8574 12.8125 14.375 12.8125C14.8926 12.8125 15.3125 12.3926 15.3125 11.875ZM15.3125 9.375C15.3125 8.85742 14.8926 8.4375 14.375 8.4375C13.8574 8.4375 13.4375 8.85742 13.4375 9.375C13.4375 9.89258 13.8574 10.3125 14.375 10.3125C14.8926 10.3125 15.3125 9.89258 15.3125 9.375ZM17.8125 14.375C17.8125 13.8574 17.3926 13.4375 16.875 13.4375C16.3574 13.4375 15.9375 13.8574 15.9375 14.375C15.9375 14.8926 16.3574 15.3125 16.875 15.3125C17.3926 15.3125 17.8125 14.8926 17.8125 14.375ZM17.8125 11.875C17.8125 11.3574 17.3926 10.9375 16.875 10.9375C16.3574 10.9375 15.9375 11.3574 15.9375 11.875C15.9375 12.3926 16.3574 12.8125 16.875 12.8125C17.3926 12.8125 17.8125 12.3926 17.8125 11.875ZM17.8125 9.375C17.8125 8.85742 17.3926 8.4375 16.875 8.4375C16.3574 8.4375 15.9375 8.85742 15.9375 9.375C15.9375 9.89258 16.3574 10.3125 16.875 10.3125C17.3926 10.3125 17.8125 9.89258 17.8125 9.375ZM17.8125 5.625C17.8125 5.27953 17.533 5 17.1875 5H11.5625C11.217 5 10.9375 5.27953 10.9375 5.625V6.875C10.9375 7.22047 11.217 7.5 11.5625 7.5H17.1875C17.533 7.5 17.8125 7.22047 17.8125 6.875V5.625Z" fill="white"/>
</svg>
