<svg width="25" height="25" viewBox="0 0 25 25" fill="none" xmlns="http://www.w3.org/2000/svg">
<path d="M14.3176 22.2333C14.1024 23.0289 13.2893 23.2142 12.5 23.2142C11.7108 23.2142 10.8976 23.0289 10.6824 22.2333C10.3625 21.0435 9.82143 18.0621 9.82143 16.6747C9.82143 15.2034 11.1248 14.8437 12.5 14.8437C13.8752 14.8437 15.1786 15.2034 15.1786 16.6747C15.1786 18.0537 14.6399 21.0349 14.3176 22.2333ZM9.6903 13.8624C8.90795 13.0962 8.43648 12.0136 8.48562 10.8239C8.57158 8.74286 10.26 7.05904 12.3413 6.97847C14.6287 6.88991 16.5179 8.72511 16.5179 10.9932C16.5179 12.116 16.0548 13.1326 15.3097 13.8623C15.1978 13.972 15.2092 14.1547 15.336 14.2468C15.7258 14.5299 16.0249 14.889 16.2247 15.3083C16.2976 15.4612 16.4966 15.5034 16.6202 15.3874C17.8266 14.2556 18.5686 12.6342 18.5249 10.8437C18.4473 7.65427 15.8633 5.05932 12.6742 4.96888C9.27186 4.87245 6.47321 7.61213 6.47321 10.9932C6.47321 12.7243 7.20698 14.287 8.3796 15.3873C8.5032 15.5032 8.70233 15.4614 8.77524 15.3083C8.97504 14.8889 9.27425 14.53 9.66398 14.2468C9.79075 14.1547 9.80226 13.972 9.6903 13.8624V13.8624ZM12.5 1.78564C7.31881 1.78564 3.125 5.97866 3.125 11.1606C3.125 14.9271 5.32653 18.0934 8.38751 19.5901C8.56886 19.6787 8.77536 19.5255 8.74473 19.326C8.64503 18.6768 8.563 18.0308 8.51847 17.4703C8.51236 17.3935 8.47038 17.3244 8.40639 17.2815C6.42257 15.9503 5.11828 13.6815 5.13405 11.1146C5.15883 7.08682 8.45255 3.80513 12.4804 3.79461C16.551 3.78389 19.8661 7.09243 19.8661 11.1606C19.8661 13.7527 18.5202 16.0361 16.4907 17.3493C16.4488 17.9368 16.3622 18.6295 16.2553 19.326C16.2246 19.5255 16.4312 19.6788 16.6125 19.5901C19.6663 18.0968 21.875 14.9352 21.875 11.1606C21.875 5.97948 17.682 1.78564 12.5 1.78564ZM12.5 8.48207C11.0207 8.48207 9.82143 9.68132 9.82143 11.1606C9.82143 12.64 11.0207 13.8392 12.5 13.8392C13.9793 13.8392 15.1786 12.64 15.1786 11.1606C15.1786 9.68132 13.9793 8.48207 12.5 8.48207Z" fill="white"/>
</svg>
