<svg width="47" height="47" viewBox="0 0 47 47" fill="none" xmlns="http://www.w3.org/2000/svg">
<circle cx="23.5" cy="23.5" r="23.5" fill="#F9BC0E"/>
<path d="M29.5234 28.1602L25.3242 28.1602L25.3242 23.375C25.3242 19.8724 26.724 18.1211 29.5234 18.1211L29.5234 19.6445C28.3776 19.6966 27.668 20.1393 27.3945 20.9727C27.2122 21.4805 27.1211 22.2552 27.1211 23.2969L27.1211 24L29.5234 24L29.5234 28.1602ZM22.1906 28.1602L17.9914 28.1602L17.9914 23.375C17.9914 19.8724 19.3911 18.1211 22.1906 18.1211L22.1906 19.6445C21.0448 19.6966 20.3352 20.1393 20.0617 20.9727C19.8794 21.4805 19.7883 22.2552 19.7883 23.2969L19.7883 24L22.1906 24L22.1906 28.1602Z" fill="white"/>
</svg>
