<svg width="15" height="15" viewBox="0 0 15 15" fill="none" xmlns="http://www.w3.org/2000/svg">
<path d="M9.16916 0C12.3891 0 15 2.61044 15 5.82994C15 9.04944 12.3891 11.6599 9.16914 11.6599C7.93092 11.6599 6.78261 11.2737 5.83869 10.616L5.838 10.6153L1.51357 14.939C1.43333 15.0193 1.30572 15.0213 1.22339 14.939L0.0578985 13.7737C-0.0223484 13.6935 -0.0182314 13.5605 0.0585842 13.4836L4.38237 9.16055C3.72451 8.21609 3.3383 7.06794 3.3383 5.82994C3.3383 2.61044 5.94915 0 9.16916 0ZM9.16916 10.2881C11.6318 10.2881 13.6281 8.29223 13.6281 5.82994C13.6281 3.36764 11.6318 1.37175 9.16916 1.37175C6.7065 1.37175 4.71027 3.36764 4.71027 5.82994C4.71027 8.29223 6.70648 10.2881 9.16916 10.2881Z" fill="#6B6B6B"/>
</svg>
