<svg width="15" height="16" viewBox="0 0 15 16" fill="none" xmlns="http://www.w3.org/2000/svg">
<path d="M9.16916 0.894775C12.3891 0.894775 15 3.50521 15 6.72471C15 9.94421 12.3891 12.5547 9.16913 12.5547C7.93091 12.5547 6.7826 12.1685 5.83868 11.5107L5.83799 11.5101L1.51356 15.8338C1.43331 15.9141 1.30571 15.9161 1.22338 15.8338L0.0578833 14.6685C-0.0223646 14.5883 -0.0182476 14.4552 0.058568 14.3784L4.38236 10.0553C3.7245 9.11087 3.33829 7.96271 3.33829 6.72471C3.33829 3.50521 5.94914 0.894775 9.16916 0.894775ZM9.16916 11.1829C11.6318 11.1829 13.6281 9.18701 13.6281 6.72471C13.6281 4.26242 11.6318 2.26653 9.16916 2.26653C6.70649 2.26653 4.71026 4.26242 4.71026 6.72471C4.71026 9.18701 6.70647 11.1829 9.16916 11.1829Z" fill="white"/>
</svg>
