<svg width="14" height="14" viewBox="0 0 14 14" fill="none" xmlns="http://www.w3.org/2000/svg">
<path d="M13.937 11.1596L13.8673 10.9496C13.7023 10.4591 13.1613 9.94749 12.6644 9.8127L10.8251 9.31024C10.3263 9.17454 9.61478 9.35701 9.24984 9.72192L8.58416 10.3876C6.16495 9.73389 4.26791 7.83679 3.61508 5.41805L4.28079 4.75234C4.64573 4.3874 4.82817 3.67683 4.69247 3.17805L4.19092 1.33784C4.05522 0.839959 3.54267 0.299008 3.05307 0.135787L2.84311 0.0651938C2.35256 -0.0980275 1.65297 0.0670422 1.28806 0.43195L0.2923 1.42862C0.114409 1.60557 0.0007145 2.11169 0.0007145 2.11354C-0.0341127 5.27498 1.20552 8.32088 3.4418 10.5572C5.67259 12.788 8.70707 14.0258 11.8593 13.9992C11.8758 13.9992 12.3966 13.8873 12.5745 13.7104L13.5703 12.7146C13.9352 12.3497 14.1002 11.6501 13.937 11.1596Z" fill="#656565"/>
</svg>
