<svg width="70" height="70" viewBox="0 0 70 70" fill="none" xmlns="http://www.w3.org/2000/svg">
<g clip-path="url(#clip0_437:997)">
<path d="M35.0004 69.2601C53.9218 69.2601 69.2606 53.9213 69.2606 34.9999C69.2606 16.0786 53.9218 0.739746 35.0004 0.739746C16.079 0.739746 0.740234 16.0786 0.740234 34.9999C0.740234 53.9213 16.079 69.2601 35.0004 69.2601Z" stroke="#F9BC12" stroke-width="2" stroke-miterlimit="10"/>
<path d="M60.9814 21.0992L54.9891 24.2803L60.9814 21.0992C58.4641 16.1689 54.621 12.0388 49.8844 9.17359L46.4222 15.092L49.8844 9.17359C45.5889 6.58533 40.6951 5.15646 35.6818 5.02678C30.6684 4.8971 25.7073 6.07106 21.2837 8.43379L24.4427 14.5593L21.2837 8.43379C16.3996 11.0418 12.341 14.962 9.56526 19.7527L15.4319 23.2668L9.56526 19.7527C7.02627 24.1473 5.63263 29.1096 5.5124 34.1835C5.39218 39.2573 6.54924 44.28 8.87724 48.7899L14.8622 45.6088L8.87724 48.7899C11.4102 53.686 15.2516 57.7835 19.9743 60.6268L23.3847 54.7527L19.9743 60.6268C24.2614 63.1968 29.1399 64.6154 34.1367 64.745C39.1335 64.8746 44.079 63.7109 48.4936 61.3666L45.379 55.3224L48.4936 61.3666C53.3571 58.7644 57.4035 54.8641 60.1825 50.0994L54.3972 46.6371L60.1825 50.0994C62.7288 45.7222 64.1344 40.7754 64.2701 35.7133C64.4058 30.6512 63.2674 25.6361 60.9593 21.1288L60.9814 21.0992Z" fill="#FDFDFD"/>
<path d="M60.9815 21.0992L54.9891 24.2803L60.9815 21.0992ZM60.9815 21.0992C58.4641 16.1689 54.621 12.0388 49.8844 9.17359L46.4222 15.092L49.8844 9.17359C45.5889 6.58533 40.6951 5.15646 35.6818 5.02678C30.6684 4.8971 25.7073 6.07106 21.2837 8.43379L24.4427 14.5593L21.2837 8.43379C16.3996 11.0418 12.341 14.962 9.56526 19.7527L15.4319 23.2668L9.56526 19.7527C7.02627 24.1473 5.63263 29.1096 5.5124 34.1835C5.39218 39.2573 6.54924 44.28 8.87724 48.7899L14.8622 45.6088L8.87724 48.7899C11.4102 53.686 15.2516 57.7835 19.9743 60.6268L23.3847 54.7527L19.9743 60.6268C24.2614 63.1968 29.1399 64.6154 34.1367 64.745C39.1335 64.8746 44.079 63.7109 48.4936 61.3666L45.379 55.3224L48.4936 61.3666C53.3571 58.7644 57.4035 54.8641 60.1825 50.0994L54.3972 46.6371L60.1825 50.0994C62.7288 45.7222 64.1344 40.7754 64.2701 35.7133C64.4058 30.6512 63.2674 25.6361 60.9593 21.1288L60.9815 21.0992Z" stroke="#F9BC12" stroke-miterlimit="10"/>
<path d="M35 5.26001V13.9601" stroke="#F9BC12" stroke-width="2" stroke-miterlimit="10"/>
<path d="M35 56.04V64.7401" stroke="#F9BC12" stroke-width="2" stroke-miterlimit="10"/>
<path d="M55.5957 35H64.3032" stroke="#F9BC12" stroke-width="2" stroke-miterlimit="10"/>
<path d="M5.49609 35H14.1962" stroke="#F9BC12" stroke-width="2" stroke-miterlimit="10"/>
<path d="M32.6621 39.2095H37.3377L35.8137 19.9895H34.2971L32.6621 39.2095Z" stroke="#F9BC12" stroke-miterlimit="10"/>
<path d="M29.7101 31.5081L53.4429 40.6224L53.1248 41.7099L28.4746 35.7101L29.7101 31.5081Z" fill="white" stroke="#F9BC12" stroke-miterlimit="10"/>
</g>
<defs>
<clipPath id="clip0_437:997">
<rect width="70" height="70" fill="white"/>
</clipPath>
</defs>
</svg>
