<svg width="22" height="22" viewBox="0 0 22 22" fill="none" xmlns="http://www.w3.org/2000/svg">
<path d="M11.2886 1C6.1669 1 2 5.16931 2 10.2941C2 15.419 6.1669 19.5882 11.2886 19.5882C16.4104 19.5882 20.5774 15.419 20.5774 10.2941C20.5773 5.16931 16.4102 1 11.2886 1ZM11.2886 18.6715C6.672 18.6715 2.91614 14.9135 2.91614 10.2941C2.91614 5.67485 6.672 1.91667 11.2886 1.91667C15.9051 1.91667 19.6613 5.67485 19.6613 10.2941C19.6612 14.9135 15.9051 18.6715 11.2886 18.6715Z" fill="#00A1E1"/>
<path d="M15.1489 7.97194C15.3624 7.86163 15.8736 7.53393 16.1145 6.83054C16.1145 6.83054 15.5338 7.25068 14.7435 7.30018L14.7292 7.30812C14.3248 6.86659 13.7435 6.58961 13.0972 6.58961C11.8745 6.58961 10.8834 7.58144 10.8834 8.80488C10.8834 8.99051 10.9064 9.17079 10.9496 9.34312L10.9389 9.32708C10.9389 9.32708 8.56767 9.46305 6.33213 7.01601C6.33213 7.01601 5.34377 8.69672 7.03603 9.98204C6.66546 10.0438 6.01103 9.71009 6.01103 9.71009C6.01103 9.71009 6.04798 11.4771 7.80177 11.9098C7.51777 11.984 6.98656 12.0085 6.81372 11.9345C6.81372 11.9345 7.07299 13.2814 8.86404 13.5164C8.40704 13.776 7.55487 14.5667 5.62793 14.4184C5.62793 14.4184 7.0116 15.5552 9.58061 15.3948C12.1496 15.2344 14.0147 13.5039 14.7681 11.675C15.5215 9.84607 15.3118 8.80473 15.3118 8.80473C15.3118 8.80473 15.9414 8.47412 16.3741 7.68334C16.1742 7.74323 15.4329 7.92443 15.157 7.9915C15.1542 7.98508 15.1515 7.97851 15.1489 7.97194Z" fill="#00A1E1"/>
</svg>
