<svg width="37" height="37" viewBox="0 0 37 37" fill="none" xmlns="http://www.w3.org/2000/svg">
<g clip-path="url(#clip0_118:746)">
<path d="M26.4182 20.6604H2.91016V30.3368H22.8771L26.4182 20.6604ZM11.3074 23.6594H9.74648V28.0387H8.90098V23.6594H7.36172V22.9801H11.3074V23.6594ZM15.0002 28.0387L13.9018 26.1381L12.8033 28.0387H11.8061L13.3959 25.4877L11.835 22.9801H12.8322L13.8873 24.8518L14.9568 22.9801H15.9541L14.4004 25.4877L16.0191 28.0387H15.0002ZM20.4273 23.6594H18.8592V28.0387H18.0137V23.6594H16.4744V22.9801H20.4201V23.6594H20.4273Z" fill="#EF3343"/>
<path d="M25.4992 0.433594H7.75801C7.23047 0.433594 6.79688 0.867187 6.79688 1.39473V19.9525H8.71914V2.35586H25.4992V9.01875H32.1621V34.6441H8.71914V31.0453H6.79688V35.6053C6.79688 36.1328 7.23047 36.5664 7.75801 36.5664H33.1232C33.6508 36.5664 34.0844 36.1328 34.0844 35.6053V9.01875L25.4992 0.433594Z" fill="#EF3343"/>
<path d="M29.6012 12.386H11.2891V13.8024H29.6012V12.386Z" fill="#EF3343"/>
<path d="M26.7033 15.1396H11.2891V16.5561H26.7033V15.1396Z" fill="#EF3343"/>
</g>
<defs>
<clipPath id="clip0_118:746">
<rect width="37" height="37" fill="white"/>
</clipPath>
</defs>
</svg>
