<svg width="25" height="18" viewBox="0 0 25 18" fill="none" xmlns="http://www.w3.org/2000/svg">
<g clip-path="url(#clip0_435:35)">
<path d="M21.36 -0.000111966H3.64001C2.67636 0.00833179 1.75521 0.423443 1.07849 1.1542C0.401759 1.88496 0.0246964 2.87172 0.030024 3.89811V14.123C0.030024 15.1512 0.413493 16.1373 1.09613 16.8644C1.77876 17.5914 2.70465 17.9999 3.67004 17.9999H21.39C22.3554 17.9999 23.2813 17.5914 23.9639 16.8644C24.6466 16.1373 25.03 15.1512 25.03 14.123V3.89811C25.0327 3.3845 24.9395 2.87544 24.7559 2.40051C24.5723 1.92557 24.3019 1.49423 23.9604 1.13154C23.619 0.768853 23.2132 0.482043 22.7668 0.287773C22.3204 0.0935037 21.8423 -0.00435297 21.36 -0.000111966ZM10.09 12.8768V5.12296L17.09 8.62711L10.09 12.8768Z" fill="white"/>
</g>
<defs>
<clipPath id="clip0_435:35">
<rect width="25" height="18" fill="white"/>
</clipPath>
</defs>
</svg>
