<svg width="25" height="18" viewBox="0 0 25 18" fill="none" xmlns="http://www.w3.org/2000/svg">
<g clip-path="url(#clip0_437:818)">
<path d="M21.3603 -0.000111966H3.64031C2.67666 0.00833179 1.75552 0.423443 1.07879 1.1542C0.402064 1.88496 0.0250015 2.87172 0.0303291 3.89811V14.123C0.0303291 15.1512 0.413798 16.1373 1.09643 16.8644C1.77906 17.5914 2.70496 17.9999 3.67034 17.9999H21.3903C22.3557 17.9999 23.2816 17.5914 23.9642 16.8644C24.6469 16.1373 25.0303 15.1512 25.0303 14.123V3.89811C25.033 3.3845 24.9398 2.87544 24.7562 2.40051C24.5726 1.92557 24.3022 1.49423 23.9607 1.13154C23.6193 0.768853 23.2136 0.482043 22.7671 0.287773C22.3207 0.0935037 21.8426 -0.00435297 21.3603 -0.000111966ZM10.0903 12.8768V5.12296L17.0903 8.62711L10.0903 12.8768Z" fill="black"/>
</g>
<defs>
<clipPath id="clip0_437:818">
<rect width="25" height="18" fill="white"/>
</clipPath>
</defs>
</svg>
