<svg width="214" height="89" fill="none" xmlns="http://www.w3.org/2000/svg"><path d="M172.93 27.61h-8c0 8.08 4.82 15.56 11.5 20.88H24.21v8h152c-6.56 5.25-11.26 12.65-11.26 20.88h8c0-11.05 13.67-20.88 24.44-20.88v-8c-11.39 0-24.46-11.12-24.46-20.88z" fill="#FF9D45"/><path d="M64.14 28.43C64.14 22 59.73 18 52.62 18H40.68v32.83h6.57v-12h4.88l5.82 12h7.41l-6.68-13.34a9.8 9.8 0 005.46-9.06zm-6.63.08c0 3.89-3 4.71-5.53 4.71h-4.73v-9.43h4.89c3.46 0 5.37 1.68 5.37 4.72zm26.27-5.06c3.28 0 5.48 2.26 5.59 5.76v1H96v-1c-.1-7.27-4.77-11.79-12.19-11.79-8.15 0-13 5.31-13 14.2v5.7c0 8.89 4.86 14.2 13 14.2C91.11 51.47 96 46.9 96 40.11v-1h-6.6v1c-.07 3.32-2.15 5.3-5.57 5.3-4.22 0-6.27-2.66-6.27-8.12v-5.7c-.03-5.49 2.01-8.14 6.22-8.14zm38.29 9.89a7.715 7.715 0 003.66-6.7c0-5.32-4-8.63-10.51-8.63h-12.28v32.82h12.44c7.36 0 11.93-3.7 11.93-9.65a8.251 8.251 0 00-5.24-7.84zm-8.48-2.2h-4.13v-7.5h4.64c3.33 0 5 1.28 5 3.79.02 3.07-2.99 3.71-5.51 3.71zm7 9.7c0 1.85-.65 4.31-6.32 4.31h-4.77v-8.52h4.66c6.39 0 6.39 3.16 6.39 4.21h.04zm30.82-16.96v-5.87h-19.55v5.87h6.48v21.08h-6.48v5.87h19.55v-5.87h-6.48V23.88h6.48z" fill="#fff"/><path d="M51.85 63.59l1.08 1.08-1 1-1.24-1.26a7.51 7.51 0 01-3.33.65c-3.86 0-5.69-1.83-5.69-4.67s1.83-4.66 5.69-4.66c3.86 0 5.64 1.87 5.64 4.69a4.398 4.398 0 01-1.15 3.17zm-2.34-.28L48 61.74l1-1 1.7 1.72a3.18 3.18 0 00.59-2c0-2.27-1.45-3.22-4-3.22s-4 .94-4 3.22c0 2.28 1.47 3.24 4 3.24a5.86 5.86 0 002.22-.39zm16.56-2.76c0 3.05-1.67 4.54-5.53 4.54-3.86 0-5.54-1.48-5.54-4.54V56h1.6v4.5c0 1.41.35 3.14 3.92 3.14s3.93-1.74 3.93-3.14V56h1.6l.02 4.55zm11.65 4.29l-1.09-1.9h-6.42l-1.09 1.9h-1.83L72.4 56h2l5.11 8.82-1.79.02zM71 61.55h4.83l-2.41-4.2-2.42 4.2zm12.25 1.86H90v1.43h-8.36V56h1.61v7.41zM94.19 56v8.82h-1.61V56h1.61zm12.09 1.45H98.6v3h6.93v1.43H98.6v3H97V56h9.29l-.01 1.45zm4.06-1.45v8.82h-1.6V56h1.6zm12.1 1.42h-7.69v2.31h7.44v1.4h-7.44v2.32h7.69v1.39h-9.3V56h9.3v1.42zm12.47 5.18v2.24h-1.6V63c0-.9-.22-1.12-1.23-1.12h-5.46v3H125V56h6.6c2.06 0 3.41.76 3.41 2.66a2.278 2.278 0 01-1.43 2.34 1.48 1.48 0 011.33 1.6zm-8.29-5.17v3h4.57c.92 0 2.11 0 2.11-1.52s-1.19-1.51-2.11-1.51l-4.57.03z" fill="#fff" stroke="#000" stroke-width=".1" stroke-miterlimit="10"/></svg>