<svg width="214" height="89" fill="none" xmlns="http://www.w3.org/2000/svg"><path d="M172.93 27.61h-8c0 8.08 4.82 15.56 11.5 20.88H24.21v8h152c-6.56 5.25-11.26 12.65-11.26 20.88h8c0-11.05 13.67-20.88 24.44-20.88v-8c-11.39 0-24.46-11.12-24.46-20.88z" fill="#E2DD20"/><path d="M64.14 28.43C64.14 22 59.73 18 52.62 18H40.68v32.83h6.57v-12h4.88l5.82 12h7.41l-6.68-13.34a9.8 9.8 0 005.46-9.06zm-6.63.08c0 3.89-3 4.71-5.53 4.71h-4.73v-9.43h4.89c3.46 0 5.37 1.68 5.37 4.72zm26.27-5.06c3.28 0 5.48 2.26 5.59 5.76v1H96v-1c-.1-7.27-4.77-11.79-12.19-11.79-8.15 0-13 5.31-13 14.2v5.7c0 8.89 4.86 14.2 13 14.2C91.11 51.47 96 46.9 96 40.11v-1h-6.6v1c-.07 3.32-2.15 5.3-5.57 5.3-4.22 0-6.27-2.66-6.27-8.12v-5.7c-.03-5.49 2.01-8.14 6.22-8.14zm38.29 9.89a7.715 7.715 0 003.66-6.7c0-5.32-4-8.63-10.51-8.63h-12.28v32.82h12.44c7.36 0 11.93-3.7 11.93-9.65a8.251 8.251 0 00-5.24-7.84zm-8.48-2.2h-4.13v-7.5h4.64c3.33 0 5 1.28 5 3.79.02 3.07-2.99 3.71-5.51 3.71zm7 9.7c0 1.85-.65 4.31-6.32 4.31h-4.77v-8.52h4.66c6.39 0 6.39 3.16 6.39 4.21h.04zm30.82-16.96v-5.87h-19.55v5.87h6.48v21.08h-6.48v5.87h19.55v-5.87h-6.48V23.88h6.48z" fill="#fff"/><path d="M58.44 56h1.72l-3.92 8.82h-2.09l-3.26-7.67-3.45 7.67h-2.11L41.64 56h1.72l3 7.39L49.71 56h2.39l3.1 7.39L58.44 56zm5.39 0v8.82h-1.6V56h1.6zm13.45 4.44a4.07 4.07 0 01-4.28 4.4h-6.37V56H73a4.07 4.07 0 014.28 4.44zm-5.15 3c2.28 0 3.43-.55 3.43-3s-1.15-3-3.43-3h-3.89v6h3.89zm13.14-7.68c3.33 0 5.1 1.54 5.35 3.41h-1.73c-.25-1.21-1.47-2-3.62-2-3.45 0-3.93 2.16-3.93 3.25 0 1.09.59 3.25 4.08 3.25A7.92 7.92 0 0089 63v-1.42h-3.84v-1.33h5.46v3.45a10 10 0 01-5.21 1.39c-3.6 0-5.8-1.8-5.8-4.65 0-2.85 2.08-4.68 5.66-4.68zm17.22 1.66h-7.68v2.31h7.43v1.4h-7.43v2.32h7.68v1.39H93.2V56h9.29v1.42zm13.13.03H111v7.39h-1.59v-7.39h-4.61V56h10.8l.02 1.45zM119 62c0 1.09 1 1.73 4.24 1.73 2.58 0 3.54-.47 3.54-1.35 0-.88-.62-1.1-3.92-1.3-3.71-.21-5.24-.81-5.24-2.75s2-2.55 5.16-2.55 5.33 1 5.34 3h-1.72c0-1.14-1.08-1.59-3.83-1.59-2.57 0-3.23.42-3.23 1.24 0 .82.66 1.08 3.58 1.28 3.43.24 5.58.4 5.58 2.6s-2.34 2.82-5.25 2.82c-3.61 0-5.85-.75-6-3.11L119 62z" fill="#fff" stroke="#000" stroke-width=".1" stroke-miterlimit="10"/></svg>